<?xml version="1.0" encoding="UTF-8"?>
<svg version="1.1" xmlns="http://www.w3.org/2000/svg" width="180" height="180">
<path d="M0 0 C1.20269531 0.00676758 1.20269531 0.00676758 2.4296875 0.01367188 C4.41149006 0.02546832 6.39325433 0.04340395 8.375 0.0625 C7.625 5.8125 7.625 5.8125 5.375 8.0625 C5.70352355 11.72969591 6.7882679 14.07347395 8.96484375 16.99609375 C9.497146 17.72070801 10.02944824 18.44532227 10.57788086 19.19189453 C11.15030518 19.95356934 11.72272949 20.71524414 12.3125 21.5 C13.50039886 23.11038294 14.68789443 24.72106344 15.875 26.33203125 C16.46667969 27.12947754 17.05835937 27.92692383 17.66796875 28.74853516 C20.09062363 32.03256303 22.45401298 35.357244 24.8125 38.6875 C27.26323972 42.13984638 29.74251716 45.5624298 32.29296875 48.94140625 C35.36748089 53.02516148 38.31829736 57.18802363 41.25 61.375 C45.43163651 67.33598684 49.67345574 73.23625714 54.046875 79.05859375 C55.375 81.0625 55.375 81.0625 55.375 83.0625 C56.035 83.0625 56.695 83.0625 57.375 83.0625 C58.66845703 84.63208008 58.66845703 84.63208008 60.1328125 86.83203125 C60.67268799 87.63406982 61.21256348 88.4361084 61.76879883 89.26245117 C62.62574341 90.55566284 62.62574341 90.55566284 63.5 91.875 C64.67193101 93.61802595 65.84510501 95.36021683 67.01953125 97.1015625 C67.5913916 97.95137695 68.16325195 98.80119141 68.75244141 99.67675781 C71.84434862 104.22296867 75.09385374 108.65129128 78.375 113.0625 C82.83 112.5675 82.83 112.5675 87.375 112.0625 C87.22650059 118.59647412 84.31043594 122.93750297 80.87109375 128.390625 C79.13071774 130.98839331 79.13071774 130.98839331 79.375 134.0625 C80.81250191 135.75048827 80.81250191 135.75048827 82.375 137.0625 C76.55100695 153.78396457 58.52688959 164.64171362 43.375 172.0625 C39.10860633 174.01772727 34.84902481 175.64877469 30.375 177.0625 C29.40691406 177.38089844 28.43882813 177.69929687 27.44140625 178.02734375 C10.10859151 182.72300018 -10.71913679 182.02813219 -27.625 176.0625 C-29.33816406 175.48435547 -29.33816406 175.48435547 -31.0859375 174.89453125 C-40.43502683 171.52755153 -49.67114244 167.08163545 -57.625 161.0625 C-57.625 160.4025 -57.625 159.7425 -57.625 159.0625 C-58.20765625 158.794375 -58.7903125 158.52625 -59.390625 158.25 C-66.67990346 154.37597788 -73.47867898 147.11478959 -77.625 140.0625 C-77.42882787 137.5505398 -76.82206003 136.32603103 -75.31640625 134.3125 C-74.45433609 131.50711914 -74.94493323 130.89135646 -76.21484375 128.3125 C-76.98190571 126.88738662 -77.7651706 125.47090265 -78.5625 124.0625 C-79.35339752 122.65191703 -80.13382028 121.23539665 -80.90234375 119.8125 C-81.25546631 119.18859375 -81.60858887 118.5646875 -81.97241211 117.921875 C-82.78487013 115.60699273 -82.41083487 114.34580967 -81.625 112.0625 C-78.985 112.3925 -76.345 112.7225 -73.625 113.0625 C-73.00625 112.0725 -72.3875 111.0825 -71.75 110.0625 C-71.04875 109.0725 -70.3475 108.0825 -69.625 107.0625 C-68.965 107.0625 -68.305 107.0625 -67.625 107.0625 C-67.315625 106.27875 -67.00625 105.495 -66.6875 104.6875 C-65.625 102.0625 -65.625 102.0625 -64.625 100.0625 C-63.965 100.0625 -63.305 100.0625 -62.625 100.0625 C-62.41488281 99.40636719 -62.20476563 98.75023438 -61.98828125 98.07421875 C-60.11457113 93.93487633 -57.50846729 90.51675534 -54.8125 86.875 C-53.62876568 85.25661323 -52.44517591 83.63812071 -51.26171875 82.01953125 C-50.65634277 81.19533691 -50.0509668 80.37114258 -49.42724609 79.52197266 C-46.63910487 75.71707769 -43.88279997 71.88941046 -41.125 68.0625 C-40.04834375 66.57149422 -38.97152006 65.08060933 -37.89453125 63.58984375 C-35.66226028 60.4990587 -33.43056322 57.40786023 -31.19921875 54.31640625 C-30.07034588 52.75258007 -28.94144005 51.18877768 -27.8125 49.625 C-27.26553467 48.86735352 -26.71856934 48.10970703 -26.1550293 47.32910156 C-23.25761825 43.31736966 -20.3530244 39.31110074 -17.4375 35.3125 C-14.3985063 31.13791629 -11.38088648 26.94845421 -8.375 22.75 C-7.9622583 22.17475586 -7.5495166 21.59951172 -7.12426758 21.00683594 C-4.54991576 17.40431152 -2.062553 13.75796452 0.375 10.0625 C-0.6975 10.26875 -1.77 10.475 -2.875 10.6875 C-6.50119096 11.0501191 -7.70791076 11.04612069 -10.625 9.0625 C-10.625 6.4225 -10.625 3.7825 -10.625 1.0625 C-7.31505287 -0.59247356 -3.63377 -0.03834335 0 0 Z M1.375 16.0625 C0.0056856 17.67351733 0.0056856 17.67351733 -1.34765625 19.796875 C-1.88237549 20.59359619 -2.41709473 21.39031738 -2.96801758 22.21118164 C-3.53544678 23.0696167 -4.10287598 23.92805176 -4.6875 24.8125 C-9.29585221 31.68811785 -14.01816123 38.38803673 -19.11328125 44.91015625 C-20.8165858 46.89691032 -20.8165858 46.89691032 -20.625 49.0625 C-16.47791702 50.30662489 -14.22885191 50.11511759 -10.5 48.125 C-9.85804687 47.74472656 -9.21609375 47.36445312 -8.5546875 46.97265625 C-6.625 46.0625 -6.625 46.0625 -2.625 46.0625 C-0.875 48.0625 -0.875 48.0625 0.375 50.0625 C0.375 47.7525 0.375 45.4425 0.375 43.0625 C1.695 42.7325 3.015 42.4025 4.375 42.0625 C4.375 44.7025 4.375 47.3425 4.375 50.0625 C4.91125 49.381875 5.4475 48.70125 6 48 C8.375 46.0625 8.375 46.0625 11.25 46.125 C14.375 47.0625 14.375 47.0625 17.375 48.6875 C20.95487511 50.32827609 22.60585 49.84773958 26.375 49.0625 C25.25040329 47.29141052 24.12530797 45.52063764 23 43.75 C22.37351563 42.76386719 21.74703125 41.77773438 21.1015625 40.76171875 C19.87848387 38.84962071 18.6340644 36.9510966 17.375 35.0625 C16.715 35.0625 16.055 35.0625 15.375 35.0625 C15.0346875 34.05123047 15.0346875 34.05123047 14.6875 33.01953125 C13.0113107 29.24311666 10.78395459 26.09156415 8.375 22.75 C7.92382812 22.10482422 7.47265625 21.45964844 7.0078125 20.79492188 C5.85079063 19.17748745 4.61833423 17.61456756 3.375 16.0625 C2.715 16.0625 2.055 16.0625 1.375 16.0625 Z M-23.625 51.0625 C-25.13071746 53.18364959 -26.62968679 55.30903615 -28.125 57.4375 C-28.55425781 58.04078125 -28.98351562 58.6440625 -29.42578125 59.265625 C-31.82754487 62.36647929 -31.82754487 62.36647929 -32.625 66.0625 C-33.285 66.0625 -33.945 66.0625 -34.625 66.0625 C-35.92858003 67.59149097 -35.92858003 67.59149097 -37.20703125 69.62109375 C-37.72112549 70.39179199 -38.23521973 71.16249023 -38.76489258 71.95654297 C-39.59283325 73.2155542 -39.59283325 73.2155542 -40.4375 74.5 C-45.52106249 82.1264252 -50.85011119 89.45054991 -56.66137695 96.54077148 C-59.65422789 100.27037843 -59.65422789 100.27037843 -61.16796875 104.7265625 C-60.45363448 107.79974158 -59.6284948 109.59426921 -57.625 112.0625 C-54.90832853 112.52010061 -52.82022255 112.64967896 -50.11328125 112.55078125 C-49.02094429 112.54016914 -49.02094429 112.54016914 -47.90653992 112.52934265 C-45.58247763 112.50137081 -43.2608327 112.4386365 -40.9375 112.375 C-39.36136295 112.34992031 -37.78518809 112.32710655 -36.20898438 112.30664062 C-32.34672602 112.25153626 -28.48627268 112.16525228 -24.625 112.0625 C-24.625 110.0825 -24.625 108.1025 -24.625 106.0625 C-29.245 106.0625 -33.865 106.0625 -38.625 106.0625 C-38.955 105.4025 -39.285 104.7425 -39.625 104.0625 C-37.15 101.0925 -37.15 101.0925 -34.625 98.0625 C-36.935 97.0725 -39.245 96.0825 -41.625 95.0625 C-41.625 93.4125 -41.625 91.7625 -41.625 90.0625 C-40.25214844 89.91554688 -40.25214844 89.91554688 -38.8515625 89.765625 C-37.66304687 89.61609375 -36.47453125 89.4665625 -35.25 89.3125 C-34.06664063 89.17328125 -32.88328125 89.0340625 -31.6640625 88.890625 C-30.66117188 88.61734375 -29.65828125 88.3440625 -28.625 88.0625 C-27.46280721 86.06658704 -27.46280721 86.06658704 -26.625 84.0625 C-24.63671875 83.55859375 -24.63671875 83.55859375 -22.3125 83.5 C-18.23741621 83.23961126 -16.10606952 82.22640808 -12.625 80.0625 C-9.5 79.6875 -9.5 79.6875 -6.625 80.0625 C-4.75 81.5625 -4.75 81.5625 -3.625 83.0625 C-2.965 82.4025 -2.305 81.7425 -1.625 81.0625 C-1.92771961 79.72188457 -2.26337971 78.38844105 -2.625 77.0625 C-2.13 75.5775 -2.13 75.5775 -1.625 74.0625 C-2.615 73.4025 -3.605 72.7425 -4.625 72.0625 C-4.58375 71.093125 -4.5425 70.12375 -4.5 69.125 C-4.54125 68.114375 -4.5825 67.10375 -4.625 66.0625 C-7.06996043 64.34538757 -7.06996043 64.34538757 -9.625 63.0625 C-9.625 62.0725 -9.625 61.0825 -9.625 60.0625 C-8.66787109 59.98902344 -8.66787109 59.98902344 -7.69140625 59.9140625 C-6.45197266 59.80191406 -6.45197266 59.80191406 -5.1875 59.6875 C-4.36378906 59.61789063 -3.54007813 59.54828125 -2.69140625 59.4765625 C-2.00949219 59.33992188 -1.32757813 59.20328125 -0.625 59.0625 C-0.295 58.4025 0.035 57.7425 0.375 57.0625 C-0.64207031 57.02382813 -0.64207031 57.02382813 -1.6796875 56.984375 C-8.71414856 56.55568208 -14.22693244 54.92730637 -20.625 52.0625 C-21.615 51.7325 -22.605 51.4025 -23.625 51.0625 Z M24.375 53.0625 C22.71950469 53.44749891 21.0527567 53.79043135 19.375 54.0625 C19.375 54.7225 19.375 55.3825 19.375 56.0625 C14.425 56.3925 9.475 56.7225 4.375 57.0625 C4.375 57.7225 4.375 58.3825 4.375 59.0625 C6.293125 59.0315625 6.293125 59.0315625 8.25 59 C12.125 58.9375 12.125 58.9375 14.375 60.0625 C14.375 61.3825 14.375 62.7025 14.375 64.0625 C13.75625 64.248125 13.1375 64.43375 12.5 64.625 C9.3064247 66.78535976 9.20791086 69.41050622 8.375 73.0625 C8.045 74.0525 7.715 75.0425 7.375 76.0625 C8.1089519 79.03997288 8.1089519 79.03997288 9.9375 80.5625 C11.375 82.0625 11.375 82.0625 11.375 85.0625 C13.169375 84.5675 13.169375 84.5675 15 84.0625 C19.19249403 83.01437649 23.36218778 82.05609389 27.375 84.0625 C27.58125 84.701875 27.7875 85.34125 28 86 C29.83206328 88.74809492 31.74969043 88.97864415 34.8828125 89.6328125 C38.7942344 90.30719559 42.71262759 90.93013509 46.640625 91.5 C49.2129948 92.02917322 51.10763058 92.76686033 53.375 94.0625 C53.375 95.3825 53.375 96.7025 53.375 98.0625 C47.63670581 100.99269278 41.16170511 100.81353774 34.859375 101.2734375 C33.94414063 101.34820312 33.02890625 101.42296875 32.0859375 101.5 C31.25368652 101.56058594 30.42143555 101.62117188 29.56396484 101.68359375 C27.09094913 101.95961567 27.09094913 101.95961567 24.375 104.0625 C24.375 104.7225 24.375 105.3825 24.375 106.0625 C23.59125 106.371875 22.8075 106.68125 22 107 C19.45169872 107.99125038 19.45169872 107.99125038 17.375 109.0625 C12.94805136 109.50519486 10.21337305 109.14940196 6.4375 106.9375 C3.10769604 105.1317217 2.46742788 105.05076313 -1.5625 105.5625 C-6.05041617 107.04360156 -10.36304889 109.03018072 -14.625 111.0625 C-14.625 111.3925 -14.625 111.7225 -14.625 112.0625 C-4.63738372 112.17825478 5.35007349 112.26714445 15.33822346 112.32156086 C19.97596713 112.34767576 24.61325254 112.38310782 29.25073242 112.43969727 C33.72465211 112.49395035 38.19813054 112.52390627 42.67235374 112.53688622 C44.38088112 112.54613825 46.08938383 112.56420534 47.79772377 112.59115028 C50.18770503 112.62735358 52.57585395 112.63244932 54.96606445 112.63012695 C56.02989601 112.65709152 56.02989601 112.65709152 57.11521912 112.68460083 C59.32348302 112.71721701 59.32348302 112.71721701 62.375 112.0625 C64.40588883 109.5564724 65.22687969 107.80795795 65.8515625 104.6640625 C65.16081549 100.89326325 63.06039153 98.38432707 60.75 95.4375 C59.73534117 94.09921295 58.72103511 92.76065838 57.70703125 91.421875 C57.1651416 90.71482422 56.62325195 90.00777344 56.06494141 89.27929688 C53.14451585 85.4484006 50.29360869 81.56644446 47.4375 77.6875 C46.85379639 76.89802979 46.27009277 76.10855957 45.66870117 75.29516602 C41.01398753 68.98296091 36.47839348 62.59191565 32.01782227 56.14111328 C30.82714643 54.43156212 29.60457861 52.7442879 28.375 51.0625 C26.91274984 50.97004997 26.91274984 50.97004997 24.375 53.0625 Z M4.375 62.0625 C4.375 62.7225 4.375 63.3825 4.375 64.0625 C5.365 63.7325 6.355 63.4025 7.375 63.0625 C6.385 62.7325 5.395 62.4025 4.375 62.0625 Z M-0.625 62.0625 C-1.285 62.7225 -1.945 63.3825 -2.625 64.0625 C-1.305 63.7325 0.015 63.4025 1.375 63.0625 C0.715 62.7325 0.055 62.4025 -0.625 62.0625 Z M-0.625 68.0625 C-0.625 69.0525 -0.625 70.0425 -0.625 71.0625 C0.035 71.0625 0.695 71.0625 1.375 71.0625 C1.375 70.0725 1.375 69.0825 1.375 68.0625 C0.715 68.0625 0.055 68.0625 -0.625 68.0625 Z M4.375 68.0625 C4.375 69.0525 4.375 70.0425 4.375 71.0625 C5.035 71.0625 5.695 71.0625 6.375 71.0625 C6.045 70.0725 5.715 69.0825 5.375 68.0625 C5.045 68.0625 4.715 68.0625 4.375 68.0625 Z M-53.625 116.0625 C-51.47354153 121.44114617 -49.42815179 123.33331736 -45.20703125 127 C-43.625 129.0625 -43.625 129.0625 -43.76171875 131.625 C-44.625 134.0625 -44.625 134.0625 -46.625 137.0625 C-36.16402613 144.98514933 -27.25949354 149.50278158 -14.625 153.0625 C-13.71862793 153.32945679 -13.71862793 153.32945679 -12.79394531 153.60180664 C-8.00658844 154.61866193 -2.99880664 154.29069326 1.875 154.3125 C2.99648437 154.333125 4.11796875 154.35375 5.2734375 154.375 C16.28372501 154.42585583 25.94769623 152.34094061 35.6875 147.1875 C36.66299805 146.69830078 36.66299805 146.69830078 37.65820312 146.19921875 C42.21087602 143.86148262 46.26730516 141.11271584 50.375 138.0625 C49.84923921 135.83271094 49.28774782 133.86072934 48.375 131.75 C48.375 129.0625 48.375 129.0625 49.765625 127.328125 C51.59715546 125.52737656 53.48027069 123.79623924 55.375 122.0625 C57.81473766 119.39084379 57.81473766 119.39084379 58.375 116.0625 C21.415 116.0625 -15.545 116.0625 -53.625 116.0625 Z " fill="#060479" transform="translate(86.625,-0.0625)"/>
<path d="M0 0 C1.7015625 0.4640625 1.7015625 0.4640625 3.4375 0.9375 C8.93271048 2.21035227 14.43742692 2.34601524 20.05834961 2.39428711 C23.4703829 2.50012566 25.55243649 2.65112998 28.28515625 4.78125 C29.13400391 5.87953125 29.13400391 5.87953125 30 7 C30.61101563 7.68320313 31.22203125 8.36640625 31.8515625 9.0703125 C32.72941406 10.08738281 32.72941406 10.08738281 33.625 11.125 C35.37422822 13.14921606 37.10768054 15.10768054 39 17 C38.64700993 20.44165321 37.95418308 22.06872538 36 25 C46.06434734 32.34202388 54.98546527 36.61495252 67 40 C67.90637207 40.26695679 67.90637207 40.26695679 68.83105469 40.53930664 C73.61841156 41.55616193 78.62619336 41.22819326 83.5 41.25 C84.62148437 41.270625 85.74296875 41.29125 86.8984375 41.3125 C97.97150756 41.36364582 107.64426664 39.24019136 117.4375 34.0625 C118.10458984 33.72798828 118.77167969 33.39347656 119.45898438 33.04882812 C123.35008526 31.05131936 126.61542875 28.79647199 130 26 C131.3921875 25.4121875 131.3921875 25.4121875 132.8125 24.8125 C138.44239385 21.61118781 142.43741501 16.34387748 146 11 C149.36602602 12.44686642 151.43814568 14.27977075 153.9375 16.9375 C156.78629646 19.881965 159.44123201 21.95101237 163 24 C163.33 24.99 163.66 25.98 164 27 C162.4090943 29.94217707 160.13047344 32.43089968 158 35 C157.40703125 35.73992187 156.8140625 36.47984375 156.203125 37.2421875 C145.06376022 50.54498264 128.38121821 59.75801017 112 65 C111.02933594 65.3196875 110.05867188 65.639375 109.05859375 65.96875 C91.72351049 70.65508039 70.90658887 69.96588826 54 64 C52.85789063 63.61457031 51.71578125 63.22914063 50.5390625 62.83203125 C41.18997317 59.46505153 31.95385756 55.01913545 24 49 C24 48.34 24 47.68 24 47 C23.41734375 46.731875 22.8346875 46.46375 22.234375 46.1875 C14.94509654 42.31347788 8.14632102 35.05228959 4 28 C4.19617213 25.4880398 4.80293997 24.26353103 6.30859375 22.25 C7.17066391 19.44461914 6.68006677 18.82885646 5.41015625 16.25 C4.64309429 14.82488662 3.8598294 13.40840265 3.0625 12 C2.27160248 10.58941703 1.49117972 9.17289665 0.72265625 7.75 C0.36953369 7.12609375 0.01641113 6.5021875 -0.34741211 5.859375 C-1.15987013 3.54449273 -0.78583487 2.28330967 0 0 Z " fill="#E8E7EB" transform="translate(5,112)"/>
<path d="M0 0 C0.99 0 1.98 0 3 0 C3 1.65 3 3.3 3 5 C3.94875 4.67 4.8975 4.34 5.875 4 C10.55447256 2.6355542 15.16823759 2.82500659 20 3 C20.495 5.475 20.495 5.475 21 8 C21.71027344 8.06058594 22.42054687 8.12117188 23.15234375 8.18359375 C24.07144531 8.26738281 24.99054688 8.35117188 25.9375 8.4375 C27.31228516 8.55931641 27.31228516 8.55931641 28.71484375 8.68359375 C31 9 31 9 32 10 C34.9787785 9.99086264 37.94582191 9.86680056 40.921875 9.7421875 C44.38652538 10.03237395 46.19080801 11.01275678 49 13 C48.8125 15.375 48.8125 15.375 48 18 C43.29404202 20.73783477 37.67907017 20.64699042 32.375 21.0625 C30.48671714 21.21687988 28.59867964 21.37429935 26.7109375 21.53515625 C25.87868652 21.600979 25.04643555 21.66680176 24.18896484 21.73461914 C21.82542484 21.94721906 21.82542484 21.94721906 19 23 C19 23.66 19 24.32 19 25 C14.10642446 28.19580443 11.01361061 29.84401552 5 29 C3.66817081 28.32871513 2.35587489 27.61768011 1.0625 26.875 C-2.14775354 25.1534709 -2.85209018 24.98245138 -6.6875 25.4375 C-9.2592168 26.27599216 -11.74048973 27.29512916 -14.25390625 28.296875 C-15.40761719 28.75578125 -16.56132813 29.2146875 -17.75 29.6875 C-18.83796875 30.14511719 -19.9259375 30.60273437 -21.046875 31.07421875 C-24.87390935 32.27396364 -26.5356838 31.7321581 -30 30 C-30 28.35 -30 26.7 -30 25 C-31.2375 25.2475 -31.2375 25.2475 -32.5 25.5 C-36.49409475 26.07058496 -39.96825046 26.2687833 -44 26 C-44.66 25.01 -45.32 24.02 -46 23 C-44.35 21.35 -42.7 19.7 -41 18 C-41.969375 17.5875 -42.93875 17.175 -43.9375 16.75 C-47 15 -47 15 -48.125 13.0625 C-48 11 -48 11 -46.6875 8.75 C-42.63009955 6.1079718 -38.71143922 6.67631334 -34 7 C-33.855625 6.360625 -33.71125 5.72125 -33.5625 5.0625 C-33 3 -33 3 -32 2 C-27.3207268 1.81060085 -22.64883387 1.87341393 -17.96728516 1.96289062 C-16.3260442 1.99384975 -14.68447876 2.00695124 -13.04296875 2.015625 C-10.6875 2.125 -10.6875 2.125 -7 3 C-4.49637066 6.44249035 -3.61476507 9.81959755 -3 14 C-2.34 14 -1.68 14 -1 14 C-1 12.02 -1 10.04 -1 8 C-1.66 7.67 -2.32 7.34 -3 7 C-2.34 6.01 -1.68 5.02 -1 4 C-1 3.01 -1 2.02 -1 1 C-0.67 0.67 -0.34 0.34 0 0 Z " fill="#BBDFF7" transform="translate(92,81)"/>
<path d="M0 0 C3.75376152 1.25125384 4.24073289 2.5652404 6 6 C6 6.66 6 7.32 6 8 C7.55895996 7.94670532 7.55895996 7.94670532 9.14941406 7.89233398 C13.01073186 7.76181988 16.87225659 7.63871137 20.73388672 7.51782227 C22.40419972 7.46450061 24.07445014 7.40917919 25.74462891 7.35180664 C28.14732371 7.26962047 30.5501528 7.19466277 32.953125 7.12109375 C33.69806213 7.09405869 34.44299927 7.06702362 35.21051025 7.03916931 C38.69270834 6.93925952 41.64375529 7.14499244 45 8 C45.54088257 7.84462769 46.08176514 7.68925537 46.63903809 7.5291748 C49.93424403 6.79060297 53.166739 6.91670454 56.52246094 6.97827148 C57.6498745 6.9926828 57.6498745 6.9926828 58.80006409 7.00738525 C61.27826525 7.0403011 63.75628602 7.08066149 66.234375 7.12109375 C67.95501067 7.14540212 69.67565297 7.16924532 71.39630127 7.19264221 C75.92058882 7.2554118 80.4447587 7.32449859 84.96893311 7.39489746 C89.58730724 7.4656453 94.20576466 7.53042365 98.82421875 7.59570312 C107.88290405 7.72462361 116.94147626 7.86021739 126 8 C126.28875 7.236875 126.5775 6.47375 126.875 5.6875 C128 3 128 3 130 0 C130.66 0 131.32 0 132 0 C136 5.41176471 136 5.41176471 136 8 C136.66 8 137.32 8 138 8 C138 8.66 138 9.32 138 10 C142.29 9.34 146.58 8.68 151 8 C150.85223538 14.50164334 147.97164659 18.87365264 144.59375 24.328125 C142.8939751 26.96072922 142.8939751 26.96072922 142 30 C138.54992089 28.53023536 136.43506916 26.59081481 133.875 23.875 C132.62172237 22.54605277 131.33714433 21.24452827 130 20 C129.34 20 128.68 20 128 20 C126.6584751 21.59089127 126.6584751 21.59089127 125.3125 23.625 C122.33710805 27.75381549 118.99666602 30.8783437 115 34 C112.52000638 31.08870315 110.8185001 28.90224788 111 25 C112.54350285 23.11595354 114.20960654 21.54318587 116.04296875 19.94140625 C118.46245154 17.54124068 120.14219138 14.84818899 122 12 C121.13668674 12.00138269 121.13668674 12.00138269 120.25593281 12.00279331 C106.1980574 12.02495748 92.14018464 12.0414644 78.08229542 12.05181217 C71.28377972 12.05695034 64.48527575 12.06394533 57.68676758 12.07543945 C51.11856315 12.08653883 44.5503663 12.09229452 37.98215294 12.09487724 C35.48370866 12.09671644 32.98526501 12.1003078 30.48682594 12.10573006 C26.97142761 12.11305185 23.45607863 12.11398628 19.94067383 12.11352539 C18.41180542 12.1189183 18.41180542 12.1189183 16.85205078 12.12442017 C9.53057904 12.11411955 2.29176356 11.64603809 -5 11 C-4.27031096 6.49128985 -2.67844067 3.71525641 0 0 Z " fill="#080892" transform="translate(23,104)"/>
<path d="M0 0 C2.0625 0.4375 2.0625 0.4375 4 1 C4 3.31 4 5.62 4 8 C4.99 6.68 5.98 5.36 7 4 C10.37398488 4.40166487 12.89294578 4.94533402 15.9375 6.5 C19.3356862 8.16441773 22.25561628 8.62556163 26 9 C25.67 9.99 25.34 10.98 25 12 C22.69 12.33 20.38 12.66 18 13 C18 13.66 18 14.32 18 15 C14.71480525 16.09506492 12.26336585 16.09960608 8.8125 16.0625 C7.18248047 16.04896484 7.18248047 16.04896484 5.51953125 16.03515625 C4.68808594 16.02355469 3.85664062 16.01195313 3 16 C3 16.66 3 17.32 3 18 C3.66 17.67 4.32 17.34 5 17 C9.05142119 16.74139865 10.54337669 16.69558446 14 19 C13.505 21.475 13.505 21.475 13 24 C11.68 24.33 10.36 24.66 9 25 C9.04125 25.9075 9.0825 26.815 9.125 27.75 C9.00187452 30.95126252 8.50074653 32.27989692 7 35 C7 35.99 7 36.98 7 38 C8.32 38.66 9.64 39.32 11 40 C10.67 40.99 10.34 41.98 10 43 C11.794375 42.505 11.794375 42.505 13.625 42 C17.17202042 41.12109228 20.32760662 40.65838201 24 41 C27 43 27 43 28 46 C33.58465714 47.79506837 39.17181635 48.4873357 45 49 C45 49.33 45 49.66 45 50 C40.05 50.495 40.05 50.495 35 51 C35 50.34 35 49.68 35 49 C33.081875 49.0309375 33.081875 49.0309375 31.125 49.0625 C27.25 49.125 27.25 49.125 25 48 C24.375 45.9375 24.375 45.9375 24 44 C18.21408489 43.89522488 12.70690634 44.00749455 7 45 C7 43.35 7 41.7 7 40 C6.01 40.66 5.02 41.32 4 42 C4.33 43.32 4.66 44.64 5 46 C3.515 46.495 3.515 46.495 2 47 C2.495 47.495 2.495 47.495 3 48 C3.04080783 49.99958364 3.04254356 52.00045254 3 54 C1.515 54.495 1.515 54.495 0 55 C-0.12375 53.88625 -0.2475 52.7725 -0.375 51.625 C-0.6465813 47.96896323 -0.6465813 47.96896323 -3 46 C-3 45.01 -3 44.02 -3 43 C-3.56847656 43.01160156 -4.13695313 43.02320313 -4.72265625 43.03515625 C-9.60670484 43.09223194 -14.18503965 42.81956772 -19 42 C-16.35748872 39.23737457 -14.98508143 38.08383672 -11.0625 37.75 C-8 38 -8 38 -6.125 39.5 C-5.75375 39.995 -5.3825 40.49 -5 41 C-5 40.01 -5 39.02 -5 38 C-4.68911632 36.32900023 -4.35919668 34.66128463 -4 33 C-4.99 32.34 -5.98 31.68 -7 31 C-6.95875 30.21625 -6.9175 29.4325 -6.875 28.625 C-6.70546501 25.73047107 -6.70546501 25.73047107 -9.5 23.6875 C-10.325 23.130625 -11.15 22.57375 -12 22 C-11.67 20.68 -11.34 19.36 -11 18 C-10.36191406 17.93941406 -9.72382812 17.87882812 -9.06640625 17.81640625 C-7.82697266 17.69072266 -7.82697266 17.69072266 -6.5625 17.5625 C-5.73878906 17.48128906 -4.91507813 17.40007813 -4.06640625 17.31640625 C-2.01337975 17.21069185 -2.01337975 17.21069185 -1 16 C-1.67804688 16.04640625 -2.35609375 16.0928125 -3.0546875 16.140625 C-9.96781779 16.40872424 -15.9978268 15.69269503 -22 12 C-22.33 11.01 -22.66 10.02 -23 9 C-22.41992188 8.89042969 -21.83984375 8.78085937 -21.2421875 8.66796875 C-17.40106238 7.88833444 -14.25657906 7.13322374 -10.75 5.3125 C-7.57797876 3.79858077 -6.28750944 3.96678275 -3 5 C-2.67 5 -2.34 5 -2 5 C-1.855625 4.360625 -1.71125 3.72125 -1.5625 3.0625 C-1 1 -1 1 0 0 Z M3 21 C3 21.66 3 22.32 3 23 C3.99 22.67 4.98 22.34 6 22 C5.01 21.67 4.02 21.34 3 21 Z M-2 21 C-2.66 21.66 -3.32 22.32 -4 23 C-2.68 22.67 -1.36 22.34 0 22 C-0.66 21.67 -1.32 21.34 -2 21 Z M-2 27 C-2 27.99 -2 28.98 -2 30 C-1.34 30 -0.68 30 0 30 C0 29.01 0 28.02 0 27 C-0.66 27 -1.32 27 -2 27 Z M3 27 C3 27.99 3 28.98 3 30 C3.66 30 4.32 30 5 30 C4.67 29.01 4.34 28.02 4 27 C3.67 27 3.34 27 3 27 Z " fill="#164679" transform="translate(88,41)"/>
<path d="M0 0 C2.86697492 1.28519565 4.97607712 2.57129254 7 5 C7 5.66 7 6.32 7 7 C7.61875 7.226875 8.2375 7.45375 8.875 7.6875 C11.6219805 9.38416443 11.86635273 11.05251711 13 14 C13.99 14.33 14.98 14.66 16 15 C16.33 17.31 16.66 19.62 17 22 C18.32 22 19.64 22 21 22 C21.12375 22.639375 21.2475 23.27875 21.375 23.9375 C21.58125 24.618125 21.7875 25.29875 22 26 C22.66 26.33 23.32 26.66 24 27 C24.3721042 28.32303717 24.70630173 29.65737935 25 31 C25.33 31.33 25.66 31.66 26 32 C26.04063832 33.66617115 26.042721 35.33388095 26 37 C26.66 37 27.32 37 28 37 C27.95875 37.78375 27.9175 38.5675 27.875 39.375 C27.71271266 42.16116119 27.71271266 42.16116119 30 44 C30.04092937 46.33297433 30.04241723 48.66705225 30 51 C30.33 51.33 30.66 51.66 31 52 C31.04063832 53.66617115 31.042721 55.33388095 31 57 C29.35 57 27.7 57 26 57 C26 57.66 26 58.32 26 59 C27.65 59.33 29.3 59.66 31 60 C31 69.9 31 79.8 31 90 C26.07870506 89.01574101 24.59461087 88.1837982 21 85 C21.375 83.0625 21.375 83.0625 22 81 C22.99 80.505 22.99 80.505 24 80 C23.34 79.34 22.68 78.68 22 78 C21.75 75 21.75 75 22 72 C22.99 71.01 22.99 71.01 24 70 C23.34 69.01 22.68 68.02 22 67 C21.95977609 64.6670134 21.95679753 62.33293334 22 60 C21.505 59.505 21.505 59.505 21 59 C20.957279 57.33388095 20.95936168 55.66617115 21 54 C21.18490007 51.67642489 21.18490007 51.67642489 19 49 C18.3909904 46.42862614 17.97762257 43.85934189 17.5625 41.25 C17.376875 40.5075 17.19125 39.765 17 39 C16.34 38.67 15.68 38.34 15 38 C14.5359375 36.2984375 14.5359375 36.2984375 14.0625 34.5625 C13.34378643 30.76783002 13.34378643 30.76783002 10 29 C9.65657551 27.66923011 9.32380126 26.33568021 9 25 C8.484375 24.484375 7.96875 23.96875 7.4375 23.4375 C6.963125 22.963125 6.48875 22.48875 6 22 C6 21.01 6 20.02 6 19 C5.38125 18.7525 4.7625 18.505 4.125 18.25 C1.64931313 16.79371361 1.04874998 15.62187494 0 13 C0.66 12.01 1.32 11.02 2 10 C1.34 10.66 0.68 11.32 0 12 C-2.125 11.625 -2.125 11.625 -4 11 C-3.21681311 7.08406554 -1.60820142 3.63593365 0 0 Z " fill="#05037E" transform="translate(149,21)"/>
<path d="M0 0 C0.99 0.33 1.98 0.66 3 1 C3 2.32 3 3.64 3 5 C4.32 5.66 5.64 6.32 7 7 C6.67 8.32 6.34 9.64 6 11 C5.01 11 4.02 11 3 11 C3.05929688 11.73734375 3.11859375 12.4746875 3.1796875 13.234375 C2.96622218 16.51988467 2.11713175 17.67643267 0.125 20.25 C-3.04854016 24.73029198 -4.20943631 28.62416688 -5 34 C-7.11764706 45.11764706 -7.11764706 45.11764706 -10 48 C-9.67 48.33 -9.34 48.66 -9 49 C-8.8125 51.4375 -8.8125 51.4375 -9 54 C-9.66 54.66 -10.32 55.32 -11 56 C-10.34 56.66 -9.68 57.32 -9 58 C-8.875 59.98828125 -8.875 59.98828125 -9 62.3125 C-9.09345966 65.38683076 -9.05491489 66.87282868 -7.8125 69.75 C-7 72 -7 72 -8 74.8125 C-10 77 -10 77 -13.0625 77.4375 C-16 77 -16 77 -18 75 C-18.20007291 72.28448215 -18.27977689 69.67329608 -18.265625 66.95703125 C-18.26753845 66.1552092 -18.2694519 65.35338715 -18.27142334 64.52726746 C-18.27278603 62.82668749 -18.26908377 61.12609716 -18.26074219 59.42553711 C-18.25011342 56.84008913 -18.26059803 54.25534715 -18.2734375 51.66992188 C-18.27211455 50.01562348 -18.26954936 48.36132552 -18.265625 46.70703125 C-18.26967346 45.94010452 -18.27372192 45.1731778 -18.27789307 44.38301086 C-18.22746023 38.51294343 -16.85557759 33.56673276 -15 28 C-12.9375 27.3125 -12.9375 27.3125 -11 27 C-11.66 26.34 -12.32 25.68 -13 25 C-12.625 22.375 -12.625 22.375 -12 20 C-10.35 19.67 -8.7 19.34 -7 19 C-7.99 18.01 -8.98 17.02 -10 16 C-9.67 15.01 -9.34 14.02 -9 13 C-8.34 13 -7.68 13 -7 13 C-6.9175 12.29875 -6.835 11.5975 -6.75 10.875 C-5.60263558 6.47676973 -3.19117306 3.19117306 0 0 Z M-1 8 C-1 8.66 -1 9.32 -1 10 C-0.34 9.67 0.32 9.34 1 9 C0.34 8.67 -0.32 8.34 -1 8 Z " fill="#05037D" transform="translate(18,34)"/>
<path d="M0 0 C0.70576172 0.00507568 1.41152344 0.01015137 2.13867188 0.01538086 C4.17578125 0.125 4.17578125 0.125 7.6875 1 C11.04649573 5.75857728 10.97603591 9.42163908 10.6875 15 C8.9859375 15.4021875 8.9859375 15.4021875 7.25 15.8125 C5.4865625 16.4003125 5.4865625 16.4003125 3.6875 17 C3.3575 17.99 3.0275 18.98 2.6875 20 C1.6975 20 0.7075 20 -0.3125 20 C-0.3125 20.99 -0.3125 21.98 -0.3125 23 C-1.116875 23.12375 -1.92125 23.2475 -2.75 23.375 C-3.595625 23.58125 -4.44125 23.7875 -5.3125 24 C-5.6425 24.66 -5.9725 25.32 -6.3125 26 C-7.9625 26 -9.6125 26 -11.3125 26 C-11.6425 24.02 -11.9725 22.04 -12.3125 20 C-17.2625 20.33 -22.2125 20.66 -27.3125 21 C-25.6625 19.68 -24.0125 18.36 -22.3125 17 C-21.00084743 14.88339573 -21.00084743 14.88339573 -20.3125 13 C-22.9525 12.01 -25.5925 11.02 -28.3125 10 C-28.3125 9.01 -28.3125 8.02 -28.3125 7 C-24.0225 7 -19.7325 7 -15.3125 7 C-15.6425 5.35 -15.9725 3.7 -16.3125 2 C-10.85670513 0.06773932 -5.7588404 -0.20114548 0 0 Z " fill="#C2E1F6" transform="translate(77.3125,83)"/>
<path d="M0 0 C1.19287411 3.87684087 2 6.91621923 2 11 C0.7625 11.12375 -0.475 11.2475 -1.75 11.375 C-4.9198202 11.76564686 -7.20745773 12.40426156 -10 14 C-10.9590625 14.2165625 -10.9590625 14.2165625 -11.9375 14.4375 C-15.49307036 15.40720101 -18.44064024 17.64576755 -21.53515625 19.60546875 C-22.36917969 20.12753906 -23.20320313 20.64960938 -24.0625 21.1875 C-24.89910156 21.71730469 -25.73570313 22.24710938 -26.59765625 22.79296875 C-29 24 -29 24 -33 24 C-33.04125 24.61875 -33.0825 25.2375 -33.125 25.875 C-33.41375 26.57625 -33.7025 27.2775 -34 28 C-36 28.66666667 -38 29.33333333 -40 30 C-40.67156616 31.93618425 -40.67156616 31.93618425 -41 34 C-42.75 35.875 -42.75 35.875 -45 37 C-47.625 36.5 -47.625 36.5 -50 35 C-51.3125 32.375 -51.3125 32.375 -52 30 C-50.25 27.5 -50.25 27.5 -48 25 C-46.68 25 -45.36 25 -44 25 C-43.87625 24.21625 -43.7525 23.4325 -43.625 22.625 C-43 20 -43 20 -41 18 C-39.68 18 -38.36 18 -37 18 C-36.67 16.68 -36.34 15.36 -36 14 C-33.83125748 14.50603992 -32.00032373 14.99983813 -30 16 C-30.33 14.68 -30.66 13.36 -31 12 C-30.01 11.34 -29.02 10.68 -28 10 C-26.68 11.32 -25.36 12.64 -24 14 C-24.0309375 12.2984375 -24.0309375 12.2984375 -24.0625 10.5625 C-24 7 -24 7 -23 6 C-22.05125 6.04125 -21.1025 6.0825 -20.125 6.125 C-17.02910837 6.33091429 -17.02910837 6.33091429 -15.375 4.5625 C-14.92125 4.046875 -14.4675 3.53125 -14 3 C-10.98519175 1.86944691 -10.16829698 1.94390101 -7 3 C-7 2.34 -7 1.68 -7 1 C-4 0 -4 0 0 0 Z " fill="#050380" transform="translate(73,1)"/>
<path d="M0 0 C6.35987804 -0.20190089 11.85221129 0.3722167 18 2 C18 3.32 18 4.64 18 6 C18.66 5.34 19.32 4.68 20 4 C22.625 3.875 22.625 3.875 25 4 C25.66 5.32 26.32 6.64 27 8 C28.65 7.67 30.3 7.34 32 7 C33.43088528 9.86177057 32.59991697 11.93375773 32 15 C33.2236068 12.9254644 33.2236068 12.9254644 33 10 C39.75 10.875 39.75 10.875 42 12 C42 12.66 42 13.32 42 14 C42.639375 14.12375 43.27875 14.2475 43.9375 14.375 C44.618125 14.58125 45.29875 14.7875 46 15 C46.495 15.99 46.495 15.99 47 17 C47.99 17.33 48.98 17.66 50 18 C50.3125 20.1875 50.3125 20.1875 50 23 C47.5 25.8125 47.5 25.8125 45 28 C44.01 27.67 43.02 27.34 42 27 C42 26.01 42 25.02 42 24 C40.35 23.67 38.7 23.34 37 23 C37 22.34 37 21.68 37 21 C36.28070313 20.87496094 35.56140625 20.74992187 34.8203125 20.62109375 C32.01462158 20.00321999 29.534822 19.14025662 26.875 18.0625 C26.02679688 17.72347656 25.17859375 17.38445313 24.3046875 17.03515625 C22 16 22 16 19 14 C17.01178687 13.60235737 15.00720923 13.28674418 13 13 C11.12326562 12.69809056 9.2483546 12.38471699 7.375 12.0625 C6.45460938 11.90910156 5.53421875 11.75570313 4.5859375 11.59765625 C2 11 2 11 -2 9 C-1.34 6.03 -0.68 3.06 0 0 Z M38 17 C38.33 17.66 38.66 18.32 39 19 C39.33 18.34 39.66 17.68 40 17 C39.34 17 38.68 17 38 17 Z M37 19 C38 21 38 21 38 21 Z " fill="#040366" transform="translate(97,0)"/>
<path d="M0 0 C1.155 0.28875 2.31 0.5775 3.5 0.875 C8.97837807 2.220256 14.44057239 2.34641192 20.05859375 2.39404297 C23.47049101 2.50027704 25.55251817 2.65119365 28.28515625 4.78125 C29.13400391 5.87953125 29.13400391 5.87953125 30 7 C30.61101563 7.68320313 31.22203125 8.36640625 31.8515625 9.0703125 C32.72941406 10.08738281 32.72941406 10.08738281 33.625 11.125 C35.37422822 13.14921606 37.10768054 15.10768054 39 17 C38.77256695 19.95662966 38.38764062 21.55033688 36.4375 23.8125 C35.963125 24.204375 35.48875 24.59625 35 25 C29.53272028 22.55537933 25.1952702 18.44250866 22.5625 13.0625 C22.376875 12.381875 22.19125 11.70125 22 11 C20.72486237 12.07826365 19.45507431 13.16285519 18.1875 14.25 C17.47980469 14.85328125 16.77210937 15.4565625 16.04296875 16.078125 C13.93744768 17.92997574 13.93744768 17.92997574 12.42578125 20.234375 C11.95527344 20.81703125 11.48476563 21.3996875 11 22 C10.01 22 9.02 22 8 22 C6.67659202 19.63052694 5.36628393 17.25524144 4.0625 14.875 C3.68931641 14.20984375 3.31613281 13.5446875 2.93164062 12.859375 C0.78877851 8.92114192 -0.67432177 5.55949519 -1 1 C-0.67 0.67 -0.34 0.34 0 0 Z " fill="#D4D5DB" transform="translate(5,112)"/>
<path d="M0 0 C1.32 0 2.64 0 4 0 C4 0.66 4 1.32 4 2 C5.01320313 1.94779297 5.01320313 1.94779297 6.046875 1.89453125 C6.93890625 1.86746094 7.8309375 1.84039062 8.75 1.8125 C9.63171875 1.77769531 10.5134375 1.74289063 11.421875 1.70703125 C14.44671583 2.05076316 15.75583602 3.00227459 18 5 C17.47731534 7.76276177 16.89130413 10.3260876 16 13 C16 13.99 16 14.98 16 16 C17.32 16.66 18.64 17.32 20 18 C19.67 18.99 19.34 19.98 19 21 C20.19625 20.67 21.3925 20.34 22.625 20 C26.17202042 19.12109228 29.32760662 18.65838201 33 19 C36 21 36 21 37 24 C42.58465714 25.79506837 48.17181635 26.4873357 54 27 C54 27.33 54 27.66 54 28 C50.7 28.33 47.4 28.66 44 29 C44 28.34 44 27.68 44 27 C42.081875 27.0309375 42.081875 27.0309375 40.125 27.0625 C36.25 27.125 36.25 27.125 34 26 C33.375 23.9375 33.375 23.9375 33 22 C27.21408489 21.89522488 21.70690634 22.00749455 16 23 C16 21.35 16 19.7 16 18 C15.01 18.66 14.02 19.32 13 20 C13.33 21.32 13.66 22.64 14 24 C13.01 24.33 12.02 24.66 11 25 C11.33 25.33 11.66 25.66 12 26 C12.04080783 27.99958364 12.04254356 30.00045254 12 32 C10.515 32.495 10.515 32.495 9 33 C8.87625 31.88625 8.7525 30.7725 8.625 29.625 C8.3534187 25.96896323 8.3534187 25.96896323 6 24 C6 23.01 6 22.02 6 21 C5.14728516 21.01740234 5.14728516 21.01740234 4.27734375 21.03515625 C-0.60670484 21.09223194 -5.18503965 20.81956772 -10 20 C-7.35748872 17.23737457 -5.98508143 16.08383672 -2.0625 15.75 C1 16 1 16 2.875 17.5 C3.24625 17.995 3.6175 18.49 4 19 C4 18.01 4 17.02 4 16 C4.31088368 14.32900023 4.64080332 12.66128463 5 11 C4.01 10.34 3.02 9.68 2 9 C1.95745644 7.00045254 1.95919217 4.99958364 2 3 C1.34 2.01 0.68 1.02 0 0 Z M7 5 C7 5.99 7 6.98 7 8 C7.66 8 8.32 8 9 8 C9 7.01 9 6.02 9 5 C8.34 5 7.68 5 7 5 Z M12 5 C12 5.99 12 6.98 12 8 C12.66 8 13.32 8 14 8 C13.67 7.01 13.34 6.02 13 5 C12.67 5 12.34 5 12 5 Z " fill="#1F5085" transform="translate(79,63)"/>
<path d="M0 0 C-0.16887446 7.43047616 -4.13184348 12.84932815 -8 19 C-12.41510774 18.51286902 -14.30446645 17.14946803 -17.3125 13.9375 C-18.00988281 13.20402344 -18.70726562 12.47054687 -19.42578125 11.71484375 C-20.20501953 10.86599609 -20.20501953 10.86599609 -21 10 C-23.46147866 10.96265749 -25.81556027 11.89693074 -28.125 13.1875 C-30 14 -30 14 -33 13 C-31.73046875 11.56770833 -30.4609375 10.13541667 -29.19140625 8.703125 C-27.87089823 6.81544796 -27.42516997 5.24802514 -27 3 C-25.85402344 2.95101562 -24.70804688 2.90203125 -23.52734375 2.8515625 C-21.99737465 2.77647199 -20.46742782 2.70092694 -18.9375 2.625 C-18.18533203 2.5940625 -17.43316406 2.563125 -16.65820312 2.53125 C-10.97716383 2.23613108 -5.54930813 0 0 0 Z " fill="#D1D3D9" transform="translate(174,112)"/>
<path d="M0 0 C1.89510699 -0.08160748 3.79124504 -0.13946459 5.6875 -0.1875 C6.74324219 -0.22230469 7.79898438 -0.25710937 8.88671875 -0.29296875 C12.35422768 0.03333385 14.18432448 1.00969875 17 3 C16.8125 5.375 16.8125 5.375 16 8 C11.29404202 10.73783477 5.67907017 10.64699042 0.375 11.0625 C-1.51328286 11.21687988 -3.40132036 11.37429935 -5.2890625 11.53515625 C-6.12131348 11.600979 -6.95356445 11.66680176 -7.81103516 11.73461914 C-10.17457516 11.94721906 -10.17457516 11.94721906 -13 13 C-13 13.66 -13 14.32 -13 15 C-17.89357554 18.19580443 -20.98638939 19.84401552 -27 19 C-28.33182919 18.32871513 -29.64412511 17.61768011 -30.9375 16.875 C-34.14775354 15.1534709 -34.85209018 14.98245138 -38.6875 15.4375 C-41.2592168 16.27599216 -43.74048973 17.29512916 -46.25390625 18.296875 C-47.40761719 18.75578125 -48.56132813 19.2146875 -49.75 19.6875 C-50.83796875 20.14511719 -51.9259375 20.60273437 -53.046875 21.07421875 C-55.99453718 21.99828745 -57.18680578 22.12664332 -60 21 C-56.86501708 19.14223235 -54.62528568 18.79859524 -51 19 C-51 18.34 -51 17.68 -51 17 C-47.535 16.505 -47.535 16.505 -44 16 C-44 15.01 -44 14.02 -44 13 C-38.25261786 12.79554767 -33.38619421 12.72582911 -28 15 C-27.36707031 15.26425781 -26.73414063 15.52851562 -26.08203125 15.80078125 C-24.38091824 16.51721807 -22.68951069 17.2566153 -21 18 C-21 17.01 -21 16.02 -21 15 C-15.85714286 11 -15.85714286 11 -12 11 C-12 10.34 -12 9.68 -12 9 C-8.55529653 7.7082362 -5.33079016 6.84449818 -1.6875 6.4375 C1.79643666 6.40985408 1.79643666 6.40985408 3 5 C1.68 4.67 0.36 4.34 -1 4 C-0.67 2.68 -0.34 1.36 0 0 Z " fill="#9CC8E3" transform="translate(124,91)"/>
<path d="M0 0 C0.495 0.99 0.495 0.99 1 2 C-1.05874297 8.03795513 -4.47178914 12.78458972 -8.25 17.875 C-8.83048096 18.667854 -9.41096191 19.46070801 -10.0090332 20.27758789 C-13.50520451 25.03584426 -17.04724184 29.75540433 -20.73046875 34.37109375 C-21.89171723 35.86106487 -22.95214329 37.42821494 -24 39 C-24.66 38.67 -25.32 38.34 -26 38 C-26.28875 38.78375 -26.5775 39.5675 -26.875 40.375 C-28 43 -28 43 -30 45 C-30.6425235 47.06874034 -30.6425235 47.06874034 -31 49 C-32.65 48.67 -34.3 48.34 -36 48 C-34.68 45.69 -33.36 43.38 -32 41 C-31.34 41 -30.68 41 -30 41 C-29.690625 40.21625 -29.38125 39.4325 -29.0625 38.625 C-28 36 -28 36 -27 34 C-26.34 34 -25.68 34 -25 34 C-24.59249512 32.89072144 -24.59249512 32.89072144 -24.17675781 31.7590332 C-23.06104189 29.14311917 -21.84606083 27.14074873 -20.171875 24.85546875 C-19.61886719 24.09556641 -19.06585937 23.33566406 -18.49609375 22.55273438 C-17.91988281 21.77220703 -17.34367187 20.99167969 -16.75 20.1875 C-16.18925781 19.41857422 -15.62851562 18.64964844 -15.05078125 17.85742188 C-13.92720968 16.31997117 -12.79897756 14.78591512 -11.66601562 13.25537109 C-10.56145464 11.76007004 -9.46625225 10.25780733 -8.38085938 8.74853516 C-7.61225586 7.69158447 -7.61225586 7.69158447 -6.828125 6.61328125 C-6.37856445 5.98848877 -5.92900391 5.36369629 -5.46582031 4.7199707 C-3.83095367 2.80164367 -2.06059641 1.44004455 0 0 Z " fill="#050374" transform="translate(49,66)"/>
<path d="M0 0 C1.23556641 0.01740234 1.23556641 0.01740234 2.49609375 0.03515625 C3.32238281 0.04417969 4.14867188 0.05320312 5 0.0625 C5.63808594 0.07410156 6.27617188 0.08570312 6.93359375 0.09765625 C3.7056782 2.24959995 2.64958566 2.29852068 -1.06640625 2.09765625 C-0.73640625 3.74765625 -0.40640625 5.39765625 -0.06640625 7.09765625 C-4.35640625 7.09765625 -8.64640625 7.09765625 -13.06640625 7.09765625 C-12.42572649 10.18525184 -12.42572649 10.18525184 -10.21875 11.046875 C-9.48785156 11.29050781 -8.75695312 11.53414062 -8.00390625 11.78515625 C-7.27042969 12.03652344 -6.53695312 12.28789063 -5.78125 12.546875 C-5.21535156 12.72863281 -4.64945313 12.91039063 -4.06640625 13.09765625 C-5.55486779 17.81111779 -5.55486779 17.81111779 -8.14453125 19.26171875 C-9.09585938 19.67550781 -9.09585938 19.67550781 -10.06640625 20.09765625 C-9.28394531 20.01386719 -8.50148438 19.93007812 -7.6953125 19.84375 C-6.68339844 19.74191406 -5.67148437 19.64007813 -4.62890625 19.53515625 C-3.61957031 19.43074219 -2.61023438 19.32632813 -1.5703125 19.21875 C-0.33087891 19.15880859 -0.33087891 19.15880859 0.93359375 19.09765625 C1.93359375 20.09765625 1.93359375 20.09765625 2.03125 21.9453125 C1.99869792 23.99609375 1.96614583 26.046875 1.93359375 28.09765625 C1.27359375 28.09765625 0.61359375 28.09765625 -0.06640625 28.09765625 C-0.06640625 26.44765625 -0.06640625 24.79765625 -0.06640625 23.09765625 C-1.30390625 23.34515625 -1.30390625 23.34515625 -2.56640625 23.59765625 C-6.560501 24.16824121 -10.03465671 24.36643955 -14.06640625 24.09765625 C-14.72640625 23.10765625 -15.38640625 22.11765625 -16.06640625 21.09765625 C-14.41640625 19.44765625 -12.76640625 17.79765625 -11.06640625 16.09765625 C-12.03578125 15.68515625 -13.00515625 15.27265625 -14.00390625 14.84765625 C-17.06640625 13.09765625 -17.06640625 13.09765625 -18.19140625 11.16015625 C-18.06640625 9.09765625 -18.06640625 9.09765625 -16.75390625 6.84765625 C-12.6965058 4.20562805 -8.77784547 4.77396959 -4.06640625 5.09765625 C-3.92203125 4.45828125 -3.77765625 3.81890625 -3.62890625 3.16015625 C-2.80317505 0.13247519 -2.80317505 0.13247519 0 0 Z " fill="#ABD3ED" transform="translate(62.06640625,82.90234375)"/>
<path d="M0 0 C0.80179688 0.00451172 1.60359375 0.00902344 2.4296875 0.01367188 C4.41149006 0.02546832 6.39325433 0.04340395 8.375 0.0625 C7.625 5.8125 7.625 5.8125 5.375 8.0625 C5.20812552 10.64604218 5.20812552 10.64604218 5.375 13.0625 C4.59125 13.206875 3.8075 13.35125 3 13.5 C0.41078982 13.94048925 0.41078982 13.94048925 -1.625 15.0625 C-0.965 13.4125 -0.305 11.7625 0.375 10.0625 C-0.6975 10.26875 -1.77 10.475 -2.875 10.6875 C-6.50119096 11.0501191 -7.70791076 11.04612069 -10.625 9.0625 C-10.625 6.4225 -10.625 3.7825 -10.625 1.0625 C-7.31505287 -0.59247356 -3.63377 -0.03834335 0 0 Z " fill="#060489" transform="translate(86.625,-0.0625)"/>
<path d="M0 0 C0.33 0.99 0.66 1.98 1 3 C-0.40445835 5.2636564 -2.1967913 7.0208685 -4 9 C-0.27452289 7.78705396 3.36977984 6.47187802 7 5 C7.92232422 5.93972656 7.92232422 5.93972656 8.86328125 6.8984375 C10.07564453 8.12433594 10.07564453 8.12433594 11.3125 9.375 C12.11300781 10.18710938 12.91351563 10.99921875 13.73828125 11.8359375 C16.00009937 14.12604842 16.00009937 14.12604842 19 16 C19 16.66 19 17.32 19 18 C15.54992089 16.53023536 13.43506916 14.59081481 10.875 11.875 C9.62172237 10.54605277 8.33714433 9.24452827 7 8 C6.34 8 5.68 8 5 8 C3.6584751 9.59089127 3.6584751 9.59089127 2.3125 11.625 C-0.66289195 15.75381549 -4.00333398 18.8783437 -8 22 C-10.47999362 19.08870315 -12.1814999 16.90224788 -12 13 C-10.4546558 11.06377462 -8.75404981 9.45197237 -6.92578125 7.78125 C-4.33492115 5.38483579 -2.21033839 2.746178 0 0 Z " fill="#7F7F90" transform="translate(146,116)"/>
<path d="M0 0 C0.70576172 0.00507568 1.41152344 0.01015137 2.13867188 0.01538086 C4.17578125 0.125 4.17578125 0.125 7.6875 1 C10.22313898 4.71289994 11.08228274 7.52579561 10.6875 12 C7.6875 11 7.6875 11 5.6875 8 C2.60384129 7.7497843 2.60384129 7.7497843 -0.3125 8 C-0.6425 9.65 -0.9725 11.3 -1.3125 13 C-3.6225 12.67 -5.9325 12.34 -8.3125 12 C-7.9825 11.01 -7.6525 10.02 -7.3125 9 C-5.9925 9 -4.6725 9 -3.3125 9 C-3.3125 6.69 -3.3125 4.38 -3.3125 2 C-4.3025 2.66 -5.2925 3.32 -6.3125 4 C-9 4.125 -9 4.125 -11.3125 4 C-11.3125 5.65 -11.3125 7.3 -11.3125 9 C-12.6325 9.33 -13.9525 9.66 -15.3125 10 C-16.3125 4.25 -16.3125 4.25 -16.3125 2 C-10.85670513 0.06773932 -5.7588404 -0.20114548 0 0 Z " fill="#BDDFF4" transform="translate(77.3125,83)"/>
<path d="M0 0 C0.99 0 1.98 0 3 0 C3 1.98 3 3.96 3 6 C3.99 4.68 4.98 3.36 6 2 C9.73487777 2.4979837 11.81237635 2.87491756 15 5 C15 5.66 15 6.32 15 7 C17.475 7.495 17.475 7.495 20 8 C20 8.66 20 9.32 20 10 C17.69 10.33 15.38 10.66 13 11 C13 11.66 13 12.32 13 13 C9.04 13 5.08 13 1 13 C1 15.64 1 18.28 1 21 C0.67 21 0.34 21 0 21 C-0.19592461 17.68794116 -0.38032746 14.37534146 -0.5625 11.0625 C-0.61857422 10.11697266 -0.67464844 9.17144531 -0.73242188 8.19726562 C-0.78076172 7.29814453 -0.82910156 6.39902344 -0.87890625 5.47265625 C-0.9260376 4.64000244 -0.97316895 3.80734863 -1.02172852 2.94946289 C-1 1 -1 1 0 0 Z " fill="#1B63A9" transform="translate(89,43)"/>
<path d="M0 0 C3.25 0.375 3.25 0.375 6.125 2.6875 C8.25 5.375 8.25 5.375 8.25 8.375 C7.074375 8.436875 5.89875 8.49875 4.6875 8.5625 C0.45264657 9.05806795 -1.98158396 10.61193382 -5.20703125 13.31640625 C-6.75 14.375 -6.75 14.375 -9.75 14.375 C-10.08 12.725 -10.41 11.075 -10.75 9.375 C-11.8225 9.725625 -12.895 10.07625 -14 10.4375 C-18.67307692 11.60576923 -18.67307692 11.60576923 -21.75 10.375 C-19.75 8.375 -19.75 8.375 -17.125 8.25 C-16.34125 8.29125 -15.5575 8.3325 -14.75 8.375 C-15.08 7.385 -15.41 6.395 -15.75 5.375 C-13.0280754 4.0140377 -11.5668043 4.67133752 -8.625 5.3125 C-7.25988281 5.60447266 -7.25988281 5.60447266 -5.8671875 5.90234375 C-5.16851562 6.05832031 -4.46984375 6.21429688 -3.75 6.375 C-3.770625 5.570625 -3.79125 4.76625 -3.8125 3.9375 C-3.72548335 0.36981719 -3.54529323 0.48344908 0 0 Z " fill="#DDEFFC" transform="translate(79.75,89.625)"/>
<path d="M0 0 C0.90492187 0.02320312 1.80984375 0.04640625 2.7421875 0.0703125 C4.10730469 0.09738281 4.10730469 0.09738281 5.5 0.125 C6.19867188 0.14820312 6.89734375 0.17140625 7.6171875 0.1953125 C7.9471875 1.8453125 8.2771875 3.4953125 8.6171875 5.1953125 C11.9171875 5.5253125 15.2171875 5.8553125 18.6171875 6.1953125 C18.6171875 7.8453125 18.6171875 9.4953125 18.6171875 11.1953125 C20.2671875 11.1953125 21.9171875 11.1953125 23.6171875 11.1953125 C23.2871875 11.8553125 22.9571875 12.5153125 22.6171875 13.1953125 C21.34101562 13.16050781 20.06484375 13.12570313 18.75 13.08984375 C17.08074229 13.06171019 15.4114704 13.03440957 13.7421875 13.0078125 C12.90042969 12.98267578 12.05867188 12.95753906 11.19140625 12.93164062 C10.38574219 12.92197266 9.58007812 12.91230469 8.75 12.90234375 C8.00637207 12.8866333 7.26274414 12.87092285 6.49658203 12.85473633 C5.87638184 12.96712646 5.25618164 13.0795166 4.6171875 13.1953125 C3.6271875 14.6803125 3.6271875 14.6803125 2.6171875 16.1953125 C1.6271875 15.8653125 0.6371875 15.5353125 -0.3828125 15.1953125 C-0.11368446 11.24810119 0.07325359 9.67125467 3.1171875 7.0078125 C3.9421875 6.4096875 4.7671875 5.8115625 5.6171875 5.1953125 C5.9471875 4.2053125 6.2771875 3.2153125 6.6171875 2.1953125 C2.9871875 2.1953125 -0.6428125 2.1953125 -4.3828125 2.1953125 C-2.3828125 0.1953125 -2.3828125 0.1953125 0 0 Z " fill="#AED8F1" transform="translate(104.3828125,83.8046875)"/>
<path d="M0 0 C1.12719452 0.01441132 1.12719452 0.01441132 2.27716064 0.02911377 C4.76079714 0.06209255 7.24425713 0.10242912 9.7277832 0.14282227 C11.4498482 0.16712448 13.17191973 0.19096799 14.89399719 0.21437073 C19.42651812 0.27720157 23.95892345 0.34627109 28.49133301 0.41662598 C33.11632014 0.48731842 37.74138924 0.55212994 42.36645508 0.61743164 C51.44141495 0.74643111 60.51626358 0.88201933 69.59106445 1.02172852 C69.59106445 1.68172852 69.59106445 2.34172852 69.59106445 3.02172852 C43.19106445 3.02172852 16.79106445 3.02172852 -10.40893555 3.02172852 C-10.40893555 2.36172852 -10.40893555 1.70172852 -10.40893555 1.02172852 C-6.85554057 -0.16273648 -3.69175013 -0.06738865 0 0 Z " fill="#060477" transform="translate(78.408935546875,110.978271484375)"/>
<path d="M0 0 C2.25 0.9375 2.25 0.9375 3.5625 2.625 C4.40534623 5.46002821 4.29430253 7.99339543 4.25 10.9375 C-11.05919139 11.51079843 -11.05919139 11.51079843 -16.75 7.9375 C-17.08 6.9475 -17.41 5.9575 -17.75 4.9375 C-16.87988281 4.77314453 -16.87988281 4.77314453 -15.9921875 4.60546875 C-12.15106238 3.82583444 -9.00657906 3.07072374 -5.5 1.25 C-2.75 -0.0625 -2.75 -0.0625 0 0 Z " fill="#0A70C7" transform="translate(82.75,45.0625)"/>
<path d="M0 0 C3.54243452 1.36591169 6.92627929 2.90931484 10.3125 4.625 C11.63701172 5.29402344 11.63701172 5.29402344 12.98828125 5.9765625 C13.98408203 6.48316406 13.98408203 6.48316406 15 7 C15.33 6.34 15.66 5.68 16 5 C17.5625 6.1875 17.5625 6.1875 19 8 C18.84946418 11.01071639 18.41319987 12.52068815 16.4375 14.8125 C15.963125 15.204375 15.48875 15.59625 15 16 C9.53272028 13.55537933 5.1952702 9.44250866 2.5625 4.0625 C2.2840625 3.0415625 2.2840625 3.0415625 2 2 C0.72486237 3.07826365 -0.54492569 4.16285519 -1.8125 5.25 C-2.52019531 5.85328125 -3.22789063 6.4565625 -3.95703125 7.078125 C-6.06255232 8.92997574 -6.06255232 8.92997574 -7.57421875 11.234375 C-8.04472656 11.81703125 -8.51523437 12.3996875 -9 13 C-9.99 13 -10.98 13 -12 13 C-12.33 12.01 -12.66 11.02 -13 10 C-12.43796875 9.92910156 -11.8759375 9.85820312 -11.296875 9.78515625 C-8.13450476 8.70414193 -6.54869173 6.8376046 -4.25 4.4375 C-3.45078125 3.61121094 -2.6515625 2.78492187 -1.828125 1.93359375 C-1.22484375 1.29550781 -0.6215625 0.65742187 0 0 Z " fill="#8788A0" transform="translate(25,121)"/>
<path d="M0 0 C0.33 0 0.66 0 1 0 C1 1.98 1 3.96 1 6 C2.98 6.66 4.96 7.32 7 8 C7 8.66 7 9.32 7 10 C7.66 10 8.32 10 9 10 C9 10.66 9 11.32 9 12 C10.65 12 12.3 12 14 12 C14 12.66 14 13.32 14 14 C8.25 13.25 8.25 13.25 6 11 C3.44132526 10.5342637 0.95312092 10.16515752 -1.625 9.875 C-2.33140625 9.78863281 -3.0378125 9.70226562 -3.765625 9.61328125 C-5.50950141 9.40118817 -7.2546484 9.19959009 -9 9 C-9 9.99 -9 10.98 -9 12 C-11.31 12.33 -13.62 12.66 -16 13 C-16 13.66 -16 14.32 -16 15 C-20.455 15.495 -20.455 15.495 -25 16 C-25 13.36 -25 10.72 -25 8 C-23 11.75 -23 11.75 -23 14 C-21.35 13.67 -19.7 13.34 -18 13 C-18 12.34 -18 11.68 -18 11 C-16.02 11 -14.04 11 -12 11 C-12 10.01 -12 9.02 -12 8 C-11.01 8 -10.02 8 -9 8 C-8.855625 7.360625 -8.71125 6.72125 -8.5625 6.0625 C-8 4 -8 4 -7 3 C-5.00041636 2.95919217 -2.99954746 2.95745644 -1 3 C-0.67 2.01 -0.34 1.02 0 0 Z " fill="#B7E0F5" transform="translate(89,95)"/>
<path d="M0 0 C1.32 0.33 2.64 0.66 4 1 C3.01 1.33 2.02 1.66 1 2 C1 2.99 1 3.98 1 5 C-0.98 5.66 -2.96 6.32 -5 7 C-5.85974801 9.29294488 -5.85974801 9.29294488 -6 12 C-4.16641665 14.33454661 -4.16641665 14.33454661 -2 16 C-2.66 16 -3.32 16 -4 16 C-4.0825 16.598125 -4.165 17.19625 -4.25 17.8125 C-5.2443811 20.71277822 -6.26833958 21.63416979 -9 23 C-11.625 22.5 -11.625 22.5 -14 21 C-15.3125 18.375 -15.3125 18.375 -16 16 C-14.25 13.5 -14.25 13.5 -12 11 C-10.68 11 -9.36 11 -8 11 C-7.87625 10.21625 -7.7525 9.4325 -7.625 8.625 C-7 6 -7 6 -5 4 C-3.68 4 -2.36 4 -1 4 C-0.67 2.68 -0.34 1.36 0 0 Z " fill="#04026F" transform="translate(37,15)"/>
<path d="M0 0 C2.33294775 -0.04241723 4.66702567 -0.04092937 7 0 C8.89092493 1.89092493 8 5.47272105 8 8 C8.28520405 9.67557379 8.59955696 11.34817245 9 13 C6.69 13 4.38 13 2 13 C2 13.66 2 14.32 2 15 C1.34 15 0.68 15 0 15 C-0.5534764 12.92446352 -1 11.15634036 -1 9 C-1.66 8.01 -2.32 7.02 -3 6 C-3 4.68 -3 3.36 -3 2 C-2.01 2 -1.02 2 0 2 C0 1.34 0 0.68 0 0 Z " fill="#06049C" transform="translate(171,64)"/>
<path d="M0 0 C1.65 0 3.3 0 5 0 C5.66 1.32 6.32 2.64 7 4 C8.65 3.67 10.3 3.34 12 3 C12.33 3.66 12.66 4.32 13 5 C12.67 5.66 12.34 6.32 12 7 C11.34 7 10.68 7 10 7 C10 8.98 10 10.96 10 13 C4.80408388 12.55966813 1.33664919 12.11696661 -3 9 C-2.44271087 5.65626525 -1.64826111 2.96687001 0 0 Z " fill="#040485" transform="translate(117,4)"/>
<path d="M0 0 C3.96 0.33 7.92 0.66 12 1 C12 1.33 12 1.66 12 2 C11.31292969 2.06058594 10.62585938 2.12117188 9.91796875 2.18359375 C8.56638672 2.30927734 8.56638672 2.30927734 7.1875 2.4375 C6.29417969 2.51871094 5.40085938 2.59992188 4.48046875 2.68359375 C1.87256441 2.93489767 1.87256441 2.93489767 -1 4 C-1 4.66 -1 5.32 -1 6 C-5.89357554 9.19580443 -8.98638939 10.84401552 -15 10 C-16.33182919 9.32871513 -17.64412511 8.61768011 -18.9375 7.875 C-22.14775354 6.1534709 -22.85209018 5.98245138 -26.6875 6.4375 C-29.2592168 7.27599216 -31.74048973 8.29512916 -34.25390625 9.296875 C-35.40761719 9.75578125 -36.56132813 10.2146875 -37.75 10.6875 C-38.83796875 11.14511719 -39.9259375 11.60273437 -41.046875 12.07421875 C-43.99453718 12.99828745 -45.18680578 13.12664332 -48 12 C-44.86501708 10.14223235 -42.62528568 9.79859524 -39 10 C-39 9.34 -39 8.68 -39 8 C-35.535 7.505 -35.535 7.505 -32 7 C-32 6.01 -32 5.02 -32 4 C-26.25261786 3.79554767 -21.38619421 3.72582911 -16 6 C-15.36707031 6.26425781 -14.73414063 6.52851562 -14.08203125 6.80078125 C-12.38091824 7.51721807 -10.68951069 8.2566153 -9 9 C-9 8.01 -9 7.02 -9 6 C-3.85714286 2 -3.85714286 2 0 2 C0 1.34 0 0.68 0 0 Z " fill="#6E9CB5" transform="translate(112,100)"/>
<path d="M0 0 C4.42679007 1.47559669 4.91432696 3.90057368 7 8 C7 8.66 7 9.32 7 10 C17.89 10 28.78 10 40 10 C40 10.33 40 10.66 40 11 C25.15 11 10.3 11 -5 11 C-4.02745 6.13724999 -2.82739031 3.92186398 0 0 Z " fill="#2622AF" transform="translate(23,104)"/>
<path d="M0 0 C1 1 2 2 3 3 C6 3.25 6 3.25 9 3 C9.99 3 10.98 3 12 3 C12.33 4.65 12.66 6.3 13 8 C12.01 8.33 11.02 8.66 10 9 C10.33 9.33 10.66 9.66 11 10 C11.04080783 11.99958364 11.04254356 14.00045254 11 16 C10.01 16.33 9.02 16.66 8 17 C7.87625 15.88625 7.7525 14.7725 7.625 13.625 C7.3534187 9.96896323 7.3534187 9.96896323 5 8 C5 7.01 5 6.02 5 5 C4.14728516 5.01740234 4.14728516 5.01740234 3.27734375 5.03515625 C-1.60670484 5.09223194 -6.18503965 4.81956772 -11 4 C-7.43171205 0.26951714 -5.24245823 -0.42795577 0 0 Z " fill="#7B9FB7" transform="translate(80,79)"/>
<path d="M0 0 C5.23519826 -0.42911461 5.23519826 -0.42911461 8 0 C10.125 2.125 10.125 2.125 11 5 C9.8 10.2 9.8 10.2 8 12 C5.0625 12.1875 5.0625 12.1875 2 12 C0 10 0 10 -0.1953125 7.6171875 C-0.17210938 6.71226563 -0.14890625 5.80734375 -0.125 4.875 C-0.10695312 3.96492188 -0.08890625 3.05484375 -0.0703125 2.1171875 C-0.04710937 1.41851562 -0.02390625 0.71984375 0 0 Z " fill="#04046F" transform="translate(0,99)"/>
<path d="M0 0 C0.99 0.33 1.98 0.66 3 1 C3 2.32 3 3.64 3 5 C4.32 5.66 5.64 6.32 7 7 C6.67 8.32 6.34 9.64 6 11 C5.236875 10.835 4.47375 10.67 3.6875 10.5 C0.96403764 9.90854604 0.96403764 9.90854604 -2 10 C-2.99 9.67 -3.98 9.34 -5 9 C-5 9.99 -5 10.98 -5 12 C-4.34 12 -3.68 12 -3 12 C-3 12.66 -3 13.32 -3 14 C-4.65 14 -6.3 14 -8 14 C-8 14.99 -8 15.98 -8 17 C-7.01 17.33 -6.02 17.66 -5 18 C-5.66 18.33 -6.32 18.66 -7 19 C-7.99 18.01 -8.98 17.02 -10 16 C-9.67 15.01 -9.34 14.02 -9 13 C-8.34 13 -7.68 13 -7 13 C-6.9175 12.29875 -6.835 11.5975 -6.75 10.875 C-5.60263558 6.47676973 -3.19117306 3.19117306 0 0 Z " fill="#030177" transform="translate(18,34)"/>
<path d="M0 0 C0 0.66 0 1.32 0 2 C-2.64 2.66 -5.28 3.32 -8 4 C-7.814375 4.804375 -7.62875 5.60875 -7.4375 6.4375 C-7.293125 7.283125 -7.14875 8.12875 -7 9 C-7.33 9.33 -7.66 9.66 -8 10 C-9.52519276 9.91062197 -11.04681929 9.75462854 -12.5625 9.5625 C-13.38878906 9.46066406 -14.21507813 9.35882813 -15.06640625 9.25390625 C-15.70449219 9.17011719 -16.34257813 9.08632812 -17 9 C-16.875 6.6875 -16.875 6.6875 -16 4 C-10.838426 0.715362 -6.02700046 -0.17220001 0 0 Z " fill="#DBEEFC" transform="translate(107,90)"/>
<path d="M0 0 C1.65 0 3.3 0 5 0 C5 0.99 5 1.98 5 3 C8.84597395 3 12.59059963 2.48500811 16.40625 2.0234375 C19 2 19 2 22 4 C22.33 4.99 22.66 5.98 23 7 C28.58465714 8.79506837 34.17181635 9.4873357 40 10 C40 10.33 40 10.66 40 11 C36.7 11.33 33.4 11.66 30 12 C30 11.34 30 10.68 30 10 C28.081875 10.0309375 28.081875 10.0309375 26.125 10.0625 C22.25 10.125 22.25 10.125 20 9 C19.375 6.9375 19.375 6.9375 19 5 C13.21408489 4.89522488 7.70690634 5.00749455 2 6 C2 4.35 2 2.7 2 1 C1.34 0.67 0.68 0.34 0 0 Z " fill="#637C90" transform="translate(93,80)"/>
<path d="M0 0 C1.47265625 1.609375 1.47265625 1.609375 3.0625 3.75 C3.58972656 4.44609375 4.11695313 5.1421875 4.66015625 5.859375 C5.96931568 7.95097666 6.56033954 9.59000935 7 12 C2.1725201 10.58707905 -1.7162359 8.57025846 -6 6 C-6 5.01 -6 4.02 -6 3 C-6.66 2.67 -7.32 2.34 -8 2 C-2.25 0 -2.25 0 0 0 Z " fill="#BCBDC0" transform="translate(33,116)"/>
<path d="M0 0 C1 1 1 1 1.09765625 2.84765625 C1.04882812 5.92382812 1.04882812 5.92382812 1 9 C-1.91482778 9.80967438 -3.46113217 10.21845993 -6.3125 9.0625 C-6.869375 8.711875 -7.42625 8.36125 -8 8 C-7.74438677 5.6568787 -7.40729228 3.32156597 -7 1 C-4.51588385 -0.24205807 -2.74800896 -0.14092354 0 0 Z " fill="#04039A" transform="translate(84,1)"/>
<path d="M0 0 C0.33 0.66 0.66 1.32 1 2 C-0.79794995 7.39384984 -2.4657223 9.52020549 -7 13 C-9.1186825 15.58339352 -11.07289487 18.27158999 -13 21 C-14 19 -14 19 -13 15.9375 C-10.12908454 9.626778 -5.69389797 3.95444343 0 0 Z " fill="#060379" transform="translate(49,66)"/>
<path d="M0 0 C0.66 0.33 1.32 0.66 2 1 C1.67 1.66 1.34 2.32 1 3 C1.66386719 2.84402344 2.32773437 2.68804687 3.01171875 2.52734375 C3.89472656 2.33269531 4.77773438 2.13804688 5.6875 1.9375 C6.55761719 1.74027344 7.42773438 1.54304688 8.32421875 1.33984375 C11.16001276 0.97967721 13.24789982 1.29090031 16 2 C16 4.64 16 7.28 16 10 C15.34 10 14.68 10 14 10 C14 8.35 14 6.7 14 5 C13.175 5.165 12.35 5.33 11.5 5.5 C7.50590525 6.07058496 4.03174954 6.2687833 0 6 C-0.66 5.01 -1.32 4.02 -2 3 C-1.34 2.01 -0.68 1.02 0 0 Z " fill="#6D95AD" transform="translate(48,101)"/>
<path d="M0 0 C0.99 0 1.98 0 3 0 C3 1.65 3 3.3 3 5 C5.31 5.33 7.62 5.66 10 6 C6.57611908 9.82669043 3.99275057 11.72278474 -1 13 C-1 11.35 -1 9.7 -1 8 C-1.66 7.67 -2.32 7.34 -3 7 C-2.34 6.01 -1.68 5.02 -1 4 C-1 3.01 -1 2.02 -1 1 C-0.67 0.67 -0.34 0.34 0 0 Z " fill="#B0D9F2" transform="translate(92,81)"/>
<path d="M0 0 C-0.33 0.66 -0.66 1.32 -1 2 C-12.22 2 -23.44 2 -35 2 C-35 1.34 -35 0.68 -35 0 C-30.49786378 -0.16773186 -25.99555027 -0.32827877 -21.49291992 -0.48217773 C-19.96127431 -0.53554122 -18.42969573 -0.59086614 -16.89819336 -0.64819336 C-14.69659883 -0.73026252 -12.49485949 -0.80527067 -10.29296875 -0.87890625 C-9.26625313 -0.91945885 -9.26625313 -0.91945885 -8.21879578 -0.96083069 C-5.1530145 -1.05703182 -2.94080618 -0.98026873 0 0 Z " fill="#080577" transform="translate(65,112)"/>
<path d="M0 0 C0.66 0 1.32 0 2 0 C5 3.46153846 5 3.46153846 5 6 C5.99 6 6.98 6 8 6 C9.70060743 8.13824216 11.20205658 10.22089861 12.6875 12.5 C13.10322266 13.12003906 13.51894531 13.74007812 13.94726562 14.37890625 C14.97403506 15.91315943 15.98822225 17.45581929 17 19 C15.68 19.33 14.36 19.66 13 20 C13 19.34 13 18.68 13 18 C12.34 18 11.68 18 11 18 C7 12.58823529 7 12.58823529 7 10 C6.01 10.33 5.02 10.66 4 11 C3.71125 10.113125 3.4225 9.22625 3.125 8.3125 C2.16851252 5.49617576 1.13201054 2.74916844 0 0 Z " fill="#120F89" transform="translate(148,94)"/>
<path d="M0 0 C1.60463449 0.31008884 3.20869231 0.62316287 4.8125 0.9375 C5.70582031 1.11152344 6.59914063 1.28554688 7.51953125 1.46484375 C10 2 10 2 13 3 C13 3.66 13 4.32 13 5 C7.21642935 7.01167675 2.09781001 7.22084624 -4 7 C-2.68 4.69 -1.36 2.38 0 0 Z " fill="#0673CE" transform="translate(96,48)"/>
<path d="M0 0 C1.32 0 2.64 0 4 0 C4.66 0.66 5.32 1.32 6 2 C6.99 2 7.98 2 9 2 C9 4.31 9 6.62 9 9 C7.68 9 6.36 9 5 9 C5 8.34 5 7.68 5 7 C4.34 7 3.68 7 3 7 C3 7.66 3 8.32 3 9 C2.01 9 1.02 9 0 9 C0 6.03 0 3.06 0 0 Z " fill="#0604B7" transform="translate(97,0)"/>
<path d="M0 0 C1.299375 0.309375 2.59875 0.61875 3.9375 0.9375 C5.03384766 1.19853516 5.03384766 1.19853516 6.15234375 1.46484375 C8 2 8 2 9 3 C9.04063832 4.66617115 9.042721 6.33388095 9 8 C4.545 8.495 4.545 8.495 0 9 C0 6.03 0 3.06 0 0 Z " fill="#040498" transform="translate(0,80)"/>
<path d="M0 0 C0.33 0 0.66 0 1 0 C1 1.98 1 3.96 1 6 C2.98 6.66 4.96 7.32 7 8 C7 8.66 7 9.32 7 10 C7.66 10 8.32 10 9 10 C9 10.66 9 11.32 9 12 C10.65 12 12.3 12 14 12 C14 12.66 14 13.32 14 14 C8.25 13.25 8.25 13.25 6 11 C3.80708918 10.54337847 1.59414111 10.179588 -0.625 9.875 C-1.81351562 9.70742187 -3.00203125 9.53984375 -4.2265625 9.3671875 C-5.14179687 9.24601562 -6.05703125 9.12484375 -7 9 C-6.34 8.34 -5.68 7.68 -5 7 C-4.01 7 -3.02 7 -2 7 C-1.34 4.69 -0.68 2.38 0 0 Z " fill="#98CDEA" transform="translate(89,95)"/>
<path d="M0 0 C3.76607955 1.25535985 4.26441793 2.52883585 6 6 C6 6.99 6 7.98 6 9 C2.7 9 -0.6 9 -4 9 C-3.08541782 5.34167128 -1.99523834 3.12298174 0 0 Z " fill="#C8C9D8" transform="translate(23,104)"/>
<path d="M0 0 C0.33 1.32 0.66 2.64 1 4 C0.34 4 -0.32 4 -1 4 C-1.33 3.34 -1.66 2.68 -2 2 C-4.59345253 2.43224209 -6.76366233 2.88183116 -9.125 4.0625 C-11 5 -11 5 -14 5 C-14 5.66 -14 6.32 -14 7 C-11.525 7.99 -11.525 7.99 -9 9 C-12 10 -12 10 -15.625 8.75 C-19 7 -19 7 -20 4 C-19.12988281 3.83564453 -19.12988281 3.83564453 -18.2421875 3.66796875 C-14.40106238 2.88833444 -11.25657906 2.13322374 -7.75 0.3125 C-4.59727663 -1.19220888 -3.26539906 -1.05645264 0 0 Z " fill="#1A558C" transform="translate(85,46)"/>
<path d="M0 0 C7.78056152 5.08729023 11.96215717 10.82970725 14 20 C10.47025265 18.37822419 9.18631933 17.41314286 7.5625 13.8125 C7.34078125 13.20664062 7.1190625 12.60078125 6.890625 11.9765625 C5.48436324 8.85564823 3.34724211 6.34974752 1.20703125 3.69921875 C0 2 0 2 0 0 Z " fill="#080589" transform="translate(95,20)"/>
<path d="M0 0 C0.99 0.33 1.98 0.66 3 1 C3.33 2.65 3.66 4.3 4 6 C3.01 6.33 2.02 6.66 1 7 C1.33 7.33 1.66 7.66 2 8 C2.04080783 9.99958364 2.04254356 12.00045254 2 14 C1.01 14.33 0.02 14.66 -1 15 C-1.144375 13.948125 -1.28875 12.89625 -1.4375 11.8125 C-1.90034298 8.14967815 -1.90034298 8.14967815 -2.75 5.25 C-3 3 -3 3 -1.5625 1.1875 C-1.046875 0.795625 -0.53125 0.40375 0 0 Z " fill="#4E98BD" transform="translate(89,81)"/>
<path d="M0 0 C1.32 0.33 2.64 0.66 4 1 C3.67 1.99 3.34 2.98 3 4 C2.34 4 1.68 4 1 4 C0.71125 4.78375 0.4225 5.5675 0.125 6.375 C-1 9 -1 9 -3 11 C-3.6425235 13.06874034 -3.6425235 13.06874034 -4 15 C-5.65 14.67 -7.3 14.34 -9 14 C-7.68 11.69 -6.36 9.38 -5 7 C-4.34 7 -3.68 7 -3 7 C-2.690625 6.21625 -2.38125 5.4325 -2.0625 4.625 C-1 2 -1 2 0 0 Z " fill="#13118C" transform="translate(22,100)"/>
<path d="M0 0 C3.39417765 3.12621626 5.6062718 5.56541027 7 10 C6.01 9.67 5.02 9.34 4 9 C4.40992187 9.51949219 4.81984375 10.03898437 5.2421875 10.57421875 C8.07636576 14.2423777 10.59828033 17.51449706 12 22 C11.34 22 10.68 22 10 22 C8.67138672 20.43945313 8.67138672 20.43945313 7.1796875 18.28125 C6.64472656 17.51425781 6.10976562 16.74726563 5.55859375 15.95703125 C5.00300781 15.14621094 4.44742188 14.33539063 3.875 13.5 C3.03001953 12.28376953 3.03001953 12.28376953 2.16796875 11.04296875 C0.77261256 9.03270983 -0.61634849 7.01832507 -2 5 C-1.67 4.34 -1.34 3.68 -1 3 C-0.34 3.33 0.32 3.66 1 4 C0.67 2.68 0.34 1.36 0 0 Z " fill="#03015F" transform="translate(92,13)"/>
<path d="M0 0 C0 2 0 2 -1.64453125 3.65625 C-2.35996094 4.2646875 -3.07539063 4.873125 -3.8125 5.5 C-4.87404297 6.41265625 -4.87404297 6.41265625 -5.95703125 7.34375 C-8 9 -8 9 -11 11 C-9.60249952 7.84164893 -7.94801766 5.67727175 -5.5 3.25 C-4.8915625 2.63640625 -4.283125 2.0228125 -3.65625 1.390625 C-2 0 -2 0 0 0 Z M-15 11 C-12.875 11.375 -12.875 11.375 -11 12 C-11.515625 12.391875 -12.03125 12.78375 -12.5625 13.1875 C-13.036875 13.785625 -13.51125 14.38375 -14 15 C-13.74524194 17.52391899 -13.74524194 17.52391899 -13 20 C-13 20.99 -13 21.98 -13 23 C-18.01710526 17.61578947 -18.01710526 17.61578947 -17.9375 14.75 C-17 13 -17 13 -15 11 Z " fill="#AEAFC7" transform="translate(27,123)"/>
<path d="M0 0 C1.23556641 0.01740234 1.23556641 0.01740234 2.49609375 0.03515625 C3.32238281 0.04417969 4.14867188 0.05320312 5 0.0625 C5.63808594 0.07410156 6.27617188 0.08570312 6.93359375 0.09765625 C3.7056782 2.24959995 2.64958566 2.29852068 -1.06640625 2.09765625 C-0.73640625 3.74765625 -0.40640625 5.39765625 -0.06640625 7.09765625 C-5.01640625 7.09765625 -9.96640625 7.09765625 -15.06640625 7.09765625 C-14.73640625 6.43765625 -14.40640625 5.77765625 -14.06640625 5.09765625 C-10.76640625 5.09765625 -7.46640625 5.09765625 -4.06640625 5.09765625 C-3.73640625 3.77765625 -3.40640625 2.45765625 -3.06640625 1.09765625 C-2.06640625 0.09765625 -2.06640625 0.09765625 0 0 Z " fill="#799BAA" transform="translate(62.06640625,82.90234375)"/>
<path d="M0 0 C1.98 0 3.96 0 6 0 C6.38063221 2.3260857 6.71269945 4.66055264 7 7 C6 8 6 8 2.9375 8.0625 C1.968125 8.041875 0.99875 8.02125 0 8 C-1.125 2.25 -1.125 2.25 0 0 Z " fill="#0505B0" transform="translate(171,64)"/>
<path d="M0 0 C1.32 0.33 2.64 0.66 4 1 C4 1.66 4 2.32 4 3 C4.99 3 5.98 3 7 3 C7 3.99 7 4.98 7 6 C5.68 6 4.36 6 3 6 C3.33 7.65 3.66 9.3 4 11 C1.03824877 10.38722388 -0.38058783 9.74627478 -3 8 C-3 7.01 -3 6.02 -3 5 C-1.35 5 0.3 5 2 5 C2 4.34 2 3.68 2 3 C1.34 3 0.68 3 0 3 C0 2.01 0 1.02 0 0 Z " fill="#0605CC" transform="translate(13,43)"/>
<path d="M0 0 C2.5 0.125 2.5 0.125 3.5 1.125 C3.54092937 3.45797433 3.54241723 5.79205225 3.5 8.125 C1.50045254 8.16754356 -0.50041636 8.16580783 -2.5 8.125 C-3.5 7.125 -3.5 7.125 -3.625 4.125 C-3.46033403 0.1730167 -3.46033403 0.1730167 0 0 Z " fill="#0604BB" transform="translate(176.5,91.875)"/>
<path d="M0 0 C5.625 -0.25 5.625 -0.25 9 2 C8.67 3.65 8.34 5.3 8 7 C6.02 7.33 4.04 7.66 2 8 C2 7.34 2 6.68 2 6 C2.66 6 3.32 6 4 6 C4 5.34 4 4.68 4 4 C2.68 4.33 1.36 4.66 0 5 C0 3.35 0 1.7 0 0 Z " fill="#1E4C7E" transform="translate(93,58)"/>
<path d="M0 0 C0.66 0 1.32 0 2 0 C3.2890625 1.71484375 3.2890625 1.71484375 4.625 3.9375 C5.29402344 5.03384766 5.29402344 5.03384766 5.9765625 6.15234375 C7 8 7 8 7 9 C4.03 9 1.06 9 -2 9 C-1.125 1.125 -1.125 1.125 0 0 Z " fill="#D3D3E3" transform="translate(153,104)"/>
<path d="M0 0 C3.3 0.66 6.6 1.32 10 2 C9.67 2.99 9.34 3.98 9 5 C6.69 5.33 4.38 5.66 2 6 C2 6.66 2 7.32 2 8 C-1.28519475 9.09506492 -3.73663415 9.09960608 -7.1875 9.0625 C-8.81751953 9.04896484 -8.81751953 9.04896484 -10.48046875 9.03515625 C-11.31191406 9.02355469 -12.14335938 9.01195312 -13 9 C-13.33 9.99 -13.66 10.98 -14 12 C-14 10.68 -14 9.36 -14 8 C-10.04 8 -6.08 8 -2 8 C-2 7.34 -2 6.68 -2 6 C1.465 5.505 1.465 5.505 5 5 C5 4.34 5 3.68 5 3 C2.525 2.505 2.525 2.505 0 2 C0 1.34 0 0.68 0 0 Z " fill="#1A4C7F" transform="translate(104,48)"/>
<path d="M0 0 C0.99 0 1.98 0 3 0 C3 0.66 3 1.32 3 2 C2.34 2 1.68 2 1 2 C1.99 2.99 2.98 3.98 4 5 C4 4.01 4 3.02 4 2 C5.32 2.33 6.64 2.66 8 3 C7.125 6.875 7.125 6.875 6 8 C3.0625 8.25 3.0625 8.25 0 8 C-2 5 -2 5 -1.6875 2.875 C-1 1 -1 1 0 0 Z " fill="#0606B6" transform="translate(25,28)"/>
<path d="M0 0 C4.52048157 3.13922331 6.51545911 6.21495828 9 11 C8.01 11 7.02 11 6 11 C7.98 13.97 7.98 13.97 10 17 C9.67 17.66 9.34 18.32 9 19 C5.7 14.38 2.4 9.76 -1 5 C-0.34 4.67 0.32 4.34 1 4 C1.66 4.66 2.32 5.32 3 6 C2.2575 5.071875 2.2575 5.071875 1.5 4.125 C0 2 0 2 0 0 Z " fill="#030263" transform="translate(118,50)"/>
<path d="M0 0 C0.66 1.32 1.32 2.64 2 4 C3.65 3.67 5.3 3.34 7 3 C5.74458443 5.51083114 4.49936512 5.87125446 2 7 C2 6.34 2 5.68 2 5 C0.35 5.66 -1.3 6.32 -3 7 C-3 8.32 -3 9.64 -3 11 C-4.65 11.33 -6.3 11.66 -8 12 C-8 11.01 -8 10.02 -8 9 C-7.01 9 -6.02 9 -5 9 C-5.33 7.35 -5.66 5.7 -6 4 C-5.67 4.66 -5.34 5.32 -5 6 C-4.34 6 -3.68 6 -3 6 C-2.67 4.68 -2.34 3.36 -2 2 C-2 2.66 -2 3.32 -2 4 C-1.34 4 -0.68 4 0 4 C0 2.68 0 1.36 0 0 Z " fill="#ACACAC" transform="translate(138,149)"/>
<path d="M0 0 C0 1.65 0 3.3 0 5 C0.66 5 1.32 5 2 5 C2 5.99 2 6.98 2 8 C-0.31 8 -2.62 8 -5 8 C-4.67 6.68 -4.34 5.36 -4 4 C-4.99 4 -5.98 4 -7 4 C-7 3.01 -7 2.02 -7 1 C-4 0 -4 0 0 0 Z " fill="#0503C0" transform="translate(173,54)"/>
<path d="M0 0 C3.73487777 0.4979837 5.81237635 0.87491756 9 3 C9 3.66 9 4.32 9 5 C6.36 4.34 3.72 3.68 1 3 C0.67 4.32 0.34 5.64 0 7 C-2.0625 8.75 -2.0625 8.75 -4 10 C-3.5205537 5.78087253 -2.83374881 3.20336822 0 0 Z " fill="#125A9B" transform="translate(95,45)"/>
<path d="M0 0 C1.32 0.33 2.64 0.66 4 1 C4 3.64 4 6.28 4 9 C1.69 9 -0.62 9 -3 9 C-2.44271087 5.65626525 -1.64826111 2.96687001 0 0 Z " fill="#0605C9" transform="translate(117,4)"/>
<path d="M0 0 C2.64 0 5.28 0 8 0 C7.34 2.64 6.68 5.28 6 8 C5.01 8 4.02 8 3 8 C0.75 5.6875 0.75 5.6875 -1 3 C-0.67 2.01 -0.34 1.02 0 0 Z " fill="#0504CB" transform="translate(7,55)"/>
<path d="M0 0 C2.64 0.33 5.28 0.66 8 1 C8 2.32 8 3.64 8 5 C6.68 5 5.36 5 4 5 C4 5.99 4 6.98 4 8 C2.35 8 0.7 8 -1 8 C-1 5 -1 5 0.5 3.3125 C1.2425 2.6628125 1.2425 2.6628125 2 2 C1.34 2 0.68 2 0 2 C0 1.34 0 0.68 0 0 Z " fill="#0504D2" transform="translate(4,63)"/>
<path d="M0 0 C1.32 0 2.64 0 4 0 C4 0.66 4 1.32 4 2 C5.01320313 1.94779297 5.01320313 1.94779297 6.046875 1.89453125 C6.93890625 1.86746094 7.8309375 1.84039062 8.75 1.8125 C10.07257813 1.76029297 10.07257813 1.76029297 11.421875 1.70703125 C14.52119245 2.05922641 15.84448656 2.75887037 18 5 C18 6.32 18 7.64 18 9 C17.01 9 16.02 9 15 9 C15 8.01 15 7.02 15 6 C14.34 6 13.68 6 13 6 C13 5.34 13 4.68 13 4 C12.22914062 3.96261719 11.45828125 3.92523438 10.6640625 3.88671875 C9.66117188 3.82097656 8.65828125 3.75523438 7.625 3.6875 C6.62726563 3.62949219 5.62953125 3.57148437 4.6015625 3.51171875 C3.74304688 3.34285156 2.88453125 3.17398438 2 3 C1.34 2.01 0.68 1.02 0 0 Z " fill="#2162A1" transform="translate(79,63)"/>
<path d="M0 0 C0 3.39593478 -0.52165948 4.06619881 -2.5 6.6875 C-2.9640625 7.31011719 -3.428125 7.93273437 -3.90625 8.57421875 C-4.2671875 9.04472656 -4.628125 9.51523437 -5 10 C-5.33 9.34 -5.66 8.68 -6 8 C-7.175625 9.2065625 -7.175625 9.2065625 -8.375 10.4375 C-11 13 -11 13 -13 14 C-11.62567077 9.99153975 -9.7110562 7.23577676 -7 4 C-6.67 3.34 -6.34 2.68 -6 2 C-4.68 2 -3.36 2 -2 2 C-1.34 1.34 -0.68 0.68 0 0 Z " fill="#04026A" transform="translate(82,23)"/>
<path d="M0 0 C4.41607356 2.20803678 6.68332137 4.63395181 9 9 C8.75 11.375 8.75 11.375 8 13 C2.65326391 9.67635324 1.52450179 5.80054339 0 0 Z " fill="#070588" transform="translate(134,74)"/>
<path d="M0 0 C1.98 0 3.96 0 6 0 C5.67 2.31 5.34 4.62 5 7 C5.66 7 6.32 7 7 7 C7 7.66 7 8.32 7 9 C5.35 8.67 3.7 8.34 2 8 C0 2.25 0 2.25 0 0 Z " fill="#0505AB" transform="translate(66,2)"/>
<path d="M0 0 C1.2065625 0.0309375 1.2065625 0.0309375 2.4375 0.0625 C2.4375 0.7225 2.4375 1.3825 2.4375 2.0625 C1.4475 2.3925 0.4575 2.7225 -0.5625 3.0625 C-0.8925 4.0525 -1.2225 5.0425 -1.5625 6.0625 C-0.5725 6.0625 0.4175 6.0625 1.4375 6.0625 C1.4375 5.0725 1.4375 4.0825 1.4375 3.0625 C2.4275 3.0625 3.4175 3.0625 4.4375 3.0625 C4.1075 4.7125 3.7775 6.3625 3.4375 8.0625 C1.43795254 8.10504356 -0.56291636 8.10330783 -2.5625 8.0625 C-3.5625 7.0625 -3.5625 7.0625 -3.6875 4.0625 C-3.52180824 0.08589776 -3.52180824 0.08589776 0 0 Z " fill="#0705C5" transform="translate(61.5625,4.9375)"/>
<path d="M0 0 C1 2 1 2 0 6 C3.3 5.67 6.6 5.34 10 5 C10 5.66 10 6.32 10 7 C10.99 7.33 11.98 7.66 13 8 C7.39 8 1.78 8 -4 8 C-2.68 5.36 -1.36 2.72 0 0 Z " fill="#4C4AB1" transform="translate(151,107)"/>
<path d="M0 0 C-0.66 0.66 -1.32 1.32 -2 2 C-3.32 2 -4.64 2 -6 2 C-5.67 3.98 -5.34 5.96 -5 8 C-6.32 8.33 -7.64 8.66 -9 9 C-10 3.25 -10 3.25 -10 1 C-8.71073008 0.63720544 -7.41846728 0.28503302 -6.125 -0.0625 C-5.40570313 -0.25972656 -4.68640625 -0.45695312 -3.9453125 -0.66015625 C-2 -1 -2 -1 0 0 Z " fill="#B2D8F0" transform="translate(71,84)"/>
<path d="M0 0 C0 3 0 3 -1 6 C-0.34 6 0.32 6 1 6 C0.67 6.66 0.34 7.32 0 8 C-0.99 7.67 -1.98 7.34 -3 7 C-3 7.99 -3 8.98 -3 10 C-2.34 10 -1.68 10 -1 10 C-1 10.66 -1 11.32 -1 12 C-2.65 12 -4.3 12 -6 12 C-6 12.99 -6 13.98 -6 15 C-5.01 15.33 -4.02 15.66 -3 16 C-3.66 16.33 -4.32 16.66 -5 17 C-5.99 16.01 -6.98 15.02 -8 14 C-7.67 13.01 -7.34 12.02 -7 11 C-6.34 11 -5.68 11 -5 11 C-4.9175 10.29875 -4.835 9.5975 -4.75 8.875 C-3.82972275 5.34727053 -2.11873023 2.93888386 0 0 Z " fill="#02026D" transform="translate(16,36)"/>
<path d="M0 0 C2.475 0.99 2.475 0.99 5 2 C5 2.66 5 3.32 5 4 C6.65 4 8.3 4 10 4 C10 4.66 10 5.32 10 6 C12.64 6.33 15.28 6.66 18 7 C17.01 7.33 16.02 7.66 15 8 C14.67 8.66 14.34 9.32 14 10 C13.34 9.67 12.68 9.34 12 9 C12 8.34 12 7.68 12 7 C11.01 7 10.02 7 9 7 C9 6.34 9 5.68 9 5 C8.13375 5.2784375 8.13375 5.2784375 7.25 5.5625 C4.79307475 6.04023546 3.35602466 5.75729364 1 5 C0.67 3.35 0.34 1.7 0 0 Z " fill="#A09FA0" transform="translate(46,155)"/>
<path d="M0 0 C0.99 0.33 1.98 0.66 3 1 C3.125 3.375 3.125 3.375 3 6 C2.34 6.66 1.68 7.32 1 8 C-3.55555556 7.44444444 -3.55555556 7.44444444 -5 6 C-5.04063832 4.33382885 -5.042721 2.66611905 -5 1 C-4.34 1 -3.68 1 -3 1 C-3 2.32 -3 3.64 -3 5 C-2.01 5 -1.02 5 0 5 C0 3.35 0 1.7 0 0 Z " fill="#0806C7" transform="translate(6,102)"/>
<path d="M0 0 C0.99 0.33 1.98 0.66 3 1 C2.88541307 2.43836751 2.75790884 3.87570966 2.625 5.3125 C2.55539062 6.11300781 2.48578125 6.91351563 2.4140625 7.73828125 C2 10 2 10 0 13 C-3.5 13.3125 -3.5 13.3125 -7 13 C-7.66 12.34 -8.32 11.68 -9 11 C-6.03 11 -3.06 11 0 11 C-0.62841973 7.0285831 -0.62841973 7.0285831 -3 5 C-1.68 5 -0.36 5 1 5 C0.67 3.35 0.34 1.7 0 0 Z " fill="#030264" transform="translate(9,68)"/>
<path d="M0 0 C0.99 0 1.98 0 3 0 C3 0.99 3 1.98 3 3 C4.32 3 5.64 3 7 3 C7 3.99 7 4.98 7 6 C5.35 6.66 3.7 7.32 2 8 C2 7.01 2 6.02 2 5 C0.68 5.33 -0.64 5.66 -2 6 C-1.49396008 3.83125748 -1.00016187 2.00032373 0 0 Z " fill="#0605C5" transform="translate(139,16)"/>
<path d="M0 0 C1.32 0.33 2.64 0.66 4 1 C3.01 1.33 2.02 1.66 1 2 C1 2.99 1 3.98 1 5 C-0.98 5.66 -2.96 6.32 -5 7 C-5.85974801 9.29294488 -5.85974801 9.29294488 -6 12 C-4.16641665 14.33454661 -4.16641665 14.33454661 -2 16 C-4.97 15.505 -4.97 15.505 -8 15 C-8.36474164 7.58358663 -8.36474164 7.58358663 -6.75 5 C-5 4 -5 4 -1 4 C-0.67 2.68 -0.34 1.36 0 0 Z " fill="#03025D" transform="translate(37,15)"/>
<path d="M0 0 C0 0.66 0 1.32 0 2 C-1.32 2 -2.64 2 -4 2 C-4 3.32 -4 4.64 -4 6 C-2.68 6 -1.36 6 0 6 C0.33 5.01 0.66 4.02 1 3 C1 4.65 1 6.3 1 8 C-3.75 9.125 -3.75 9.125 -6 8 C-6 5.69 -6 3.38 -6 1 C-4 0 -4 0 0 0 Z " fill="#0705C7" transform="translate(6,91)"/>
<path d="M0 0 C1.04794275 3.14382824 1.00520947 4.87203439 0.6875 8.125 C0.60886719 9.01445313 0.53023437 9.90390625 0.44921875 10.8203125 C0.22685547 11.89925781 0.22685547 11.89925781 0 13 C-0.99 13.495 -0.99 13.495 -2 14 C-2.33 12.35 -2.66 10.7 -3 9 C-3.99 8.67 -4.98 8.34 -6 8 C-5.34 7.67 -4.68 7.34 -4 7 C-4 6.01 -4 5.02 -4 4 C-3.34 4 -2.68 4 -2 4 C-2 3.01 -2 2.02 -2 1 C-1.34 0.67 -0.68 0.34 0 0 Z " fill="#08058A" transform="translate(158,31)"/>
<path d="M0 0 C1.2065625 0.0309375 1.2065625 0.0309375 2.4375 0.0625 C2.7675 1.7125 3.0975 3.3625 3.4375 5.0625 C1.7875 4.0725 0.1375 3.0825 -1.5625 2.0625 C-1.5625 3.3825 -1.5625 4.7025 -1.5625 6.0625 C-0.2425 6.0625 1.0775 6.0625 2.4375 6.0625 C2.4375 6.7225 2.4375 7.3825 2.4375 8.0625 C0.0625 8.1875 0.0625 8.1875 -2.5625 8.0625 C-3.2225 7.4025 -3.8825 6.7425 -4.5625 6.0625 C-3.83457637 0.09352625 -3.83457637 0.09352625 0 0 Z " fill="#0704CA" transform="translate(34.5625,20.9375)"/>
<path d="M0 0 C0 1.98 0 3.96 0 6 C0.66 6 1.32 6 2 6 C2 6.66 2 7.32 2 8 C0.68 8.33 -0.64 8.66 -2 9 C-4.62386487 5.93882432 -5 5.26826873 -5 1 C-3 0 -3 0 0 0 Z " fill="#0805B0" transform="translate(55,8)"/>
<path d="M0 0 C2 3.75 2 3.75 2 6 C3.65 5.67 5.3 5.34 7 5 C7 4.34 7 3.68 7 3 C11.455 2.505 11.455 2.505 16 2 C16 2.66 16 3.32 16 4 C13.69 4.33 11.38 4.66 9 5 C9 5.66 9 6.32 9 7 C4.545 7.495 4.545 7.495 0 8 C0 5.36 0 2.72 0 0 Z " fill="#9BCDE8" transform="translate(64,103)"/>
<path d="M0 0 C1.2065625 0.0309375 1.2065625 0.0309375 2.4375 0.0625 C2.086875 1.01125 1.73625 1.96 1.375 2.9375 C0.08723223 5.93310172 0.08723223 5.93310172 1.4375 8.0625 C-0.2125 8.0625 -1.8625 8.0625 -3.5625 8.0625 C-3.60491723 5.72955225 -3.60342937 3.39547433 -3.5625 1.0625 C-2.5625 0.0625 -2.5625 0.0625 0 0 Z " fill="#0604C5" transform="translate(110.5625,2.9375)"/>
<path d="M0 0 C0.99 0.495 0.99 0.495 2 1 C2.33 1.99 2.66 2.98 3 4 C8.58465714 5.79506837 14.17181635 6.4873357 20 7 C20 7.33 20 7.66 20 8 C16.7 8.33 13.4 8.66 10 9 C10 8.34 10 7.68 10 7 C8.72125 7.020625 7.4425 7.04125 6.125 7.0625 C2.25 7.125 2.25 7.125 0 6 C0 4.02 0 2.04 0 0 Z " fill="#698CA1" transform="translate(113,83)"/>
<path d="M0 0 C0 2.31 0 4.62 0 7 C-3.37462715 6.45276317 -5.08235 5.9451 -8 4 C-8 3.34 -8 2.68 -8 2 C-2.25 0 -2.25 0 0 0 Z " fill="#DAEEFC" transform="translate(74,85)"/>
<path d="M0 0 C1.98 0.495 1.98 0.495 4 1 C4.144375 1.928125 4.28875 2.85625 4.4375 3.8125 C4.92100111 7.00725111 4.92100111 7.00725111 6 10 C3.0625 9.25 3.0625 9.25 0 8 C-1.4389687 5.12206259 -0.96203259 2.99299029 0 0 Z " fill="#1D4871" transform="translate(84,73)"/>
<path d="M0 0 C0 0.33 0 0.66 0 1 C-1.65 1.33 -3.3 1.66 -5 2 C-3.68 2.33 -2.36 2.66 -1 3 C-1.33 3.99 -1.66 4.98 -2 6 C-2.66 5.67 -3.32 5.34 -4 5 C-4.99 5.495 -4.99 5.495 -6 6 C-5.67 6.66 -5.34 7.32 -5 8 C-6.9375 7.25 -6.9375 7.25 -9 6 C-9.75 3.875 -9.75 3.875 -10 2 C-6.5980513 -0.09350689 -3.94727588 -0.17942163 0 0 Z " fill="#14395F" transform="translate(86,58)"/>
<path d="M0 0 C0.33 0.66 0.66 1.32 1 2 C2.32 1.67 3.64 1.34 5 1 C2.78310162 5.43379675 0.22271781 7.46636932 -4 10 C-4.33 9.01 -4.66 8.02 -5 7 C-4.00390625 5.17578125 -4.00390625 5.17578125 -2.5625 3.3125 C-2.08941406 2.68988281 -1.61632812 2.06726563 -1.12890625 1.42578125 C-0.75636719 0.95527344 -0.38382812 0.48476563 0 0 Z " fill="#060483" transform="translate(82,17)"/>
<path d="M0 0 C2.475 0.495 2.475 0.495 5 1 C5.33 1.99 5.66 2.98 6 4 C7.65 3.67 9.3 3.34 11 3 C11.33 3.66 11.66 4.32 12 5 C11.34 5.66 10.68 6.32 10 7 C10 6.01 10 5.02 10 4 C9.34 4 8.68 4 8 4 C7.34 6.64 6.68 9.28 6 12 C3.60236815 9.60236815 3.65719414 8.66726502 3.375 5.375 C3.30023438 4.55773437 3.22546875 3.74046875 3.1484375 2.8984375 C3.07496094 1.95871094 3.07496094 1.95871094 3 1 C2.01 0.67 1.02 0.34 0 0 Z " fill="#020371" transform="translate(118,4)"/>
<path d="M0 0 C0.99 0.33 1.98 0.66 3 1 C2.8125 3.375 2.8125 3.375 2 6 C-1.61315766 8.16789459 -4.85941364 8.19258541 -9 8 C-8.34 7.34 -7.68 6.68 -7 6 C-5.68 6 -4.36 6 -3 6 C-3 5.34 -3 4.68 -3 4 C-2.34 3.67 -1.68 3.34 -1 3 C-0.67 2.01 -0.34 1.02 0 0 Z " fill="#557A8E" transform="translate(138,93)"/>
<path d="M0 0 C4.875 4.625 4.875 4.625 6 8 C5.34 8 4.68 8 4 8 C4.66 8.928125 5.32 9.85625 6 10.8125 C8 14 8 14 8 17 C7.01 16.67 6.02 16.34 5 16 C5 15.34 5 14.68 5 14 C4.21201781 12.59851739 3.37163978 11.22604165 2.5 9.875 C2.0359375 9.15054688 1.571875 8.42609375 1.09375 7.6796875 C0.7328125 7.12539063 0.371875 6.57109375 0 6 C0.66 6 1.32 6 2 6 C1.34 4.02 0.68 2.04 0 0 Z " fill="#040361" transform="translate(106,33)"/>
<path d="M0 0 C0.66 0.99 1.32 1.98 2 3 C4.56282742 3.72965366 4.56282742 3.72965366 7 4 C6.67 5.32 6.34 6.64 6 8 C4.35 7.67 2.7 7.34 1 7 C1 6.01 1 5.02 1 4 C-0.98 4.99 -0.98 4.99 -3 6 C-3.33 5.34 -3.66 4.68 -4 4 C-4.66 3.67 -5.32 3.34 -6 3 C-4.02 2.01 -2.04 1.02 0 0 Z " fill="#AAAAAA" transform="translate(69,161)"/>
<path d="M0 0 C0.33 1.32 0.66 2.64 1 4 C5.455 4.99 5.455 4.99 10 6 C10 6.99 10 7.98 10 9 C8.68 9.33 7.36 9.66 6 10 C5.67 9.34 5.34 8.68 5 8 C3.7625 7.566875 3.7625 7.566875 2.5 7.125 C0 6 0 6 -0.875 4 C-1 2 -1 2 0 0 Z " fill="#6E90AA" transform="translate(45,90)"/>
<path d="M0 0 C0.33 0.99 0.66 1.98 1 3 C1.99 2.34 2.98 1.68 4 1 C4.99 1.66 5.98 2.32 7 3 C5.824375 3.0928125 5.824375 3.0928125 4.625 3.1875 C3.75875 3.455625 2.8925 3.72375 2 4 C0.83046584 6.42383077 0.83046584 6.42383077 0 9 C-0.99 9.66 -1.98 10.32 -3 11 C-2.67 9.35 -2.34 7.7 -2 6 C-2.66 5.67 -3.32 5.34 -4 5 C-2.68 3.35 -1.36 1.7 0 0 Z " fill="#03055C" transform="translate(61,47)"/>
<path d="M0 0 C1 3 1 3 0.14453125 4.75390625 C-4.27862595 10.75954198 -4.27862595 10.75954198 -8 12 C-7.41463247 8.33939179 -5.916761 6.45464836 -3.4375 3.75 C-2.79683594 3.04359375 -2.15617188 2.3371875 -1.49609375 1.609375 C-0.75552734 0.81273438 -0.75552734 0.81273438 0 0 Z " fill="#A3A4A5" transform="translate(146,116)"/>
<path d="M0 0 C0.99 0.33 1.98 0.66 3 1 C3.36275695 5.47400242 3.36275695 5.47400242 1.75 7.8125 C0 9 0 9 -4 9 C-4 8.01 -4 7.02 -4 6 C-5.32 6 -6.64 6 -8 6 C-7.67 5.01 -7.34 4.02 -7 3 C-7 3.66 -7 4.32 -7 5 C-5.68 4.67 -4.36 4.34 -3 4 C-3 4.99 -3 5.98 -3 7 C-1.35 6.34 0.3 5.68 2 5 C2 4.01 2 3.02 2 2 C1.01 1.67 0.02 1.34 -1 1 C-0.67 0.67 -0.34 0.34 0 0 Z " fill="#050486" transform="translate(144,17)"/>
<path d="M0 0 C0.66 0.66 1.32 1.32 2 2 C2.99 1.34 3.98 0.68 5 0 C4.690625 0.763125 4.38125 1.52625 4.0625 2.3125 C3.32106407 4.18789677 2.63771783 6.08684652 2 8 C2.66 8.33 3.32 8.66 4 9 C0.28111761 8.49287967 -2.73454239 7.88391785 -6 6 C-4.35 5.67 -2.7 5.34 -1 5 C-1.33 4.34 -1.66 3.68 -2 3 C-1.34 3 -0.68 3 0 3 C0 2.01 0 1.02 0 0 Z " fill="#040271" transform="translate(112,5)"/>
<path d="M0 0 C1.32 0.99 2.64 1.98 4 3 C3.6875 5.375 3.6875 5.375 3 8 C2.01 8.66 1.02 9.32 0 10 C0 9.34 0 8.68 0 8 C-0.66 8 -1.32 8 -2 8 C-2 7.34 -2 6.68 -2 6 C-0.68 6 0.64 6 2 6 C2 5.34 2 4.68 2 4 C1.195625 3.87625 0.39125 3.7525 -0.4375 3.625 C-1.283125 3.41875 -2.12875 3.2125 -3 3 C-3.33 2.34 -3.66 1.68 -4 1 C-2.68 1.33 -1.36 1.66 0 2 C0 1.34 0 0.68 0 0 Z " fill="#575A57" transform="translate(40,126)"/>
<path d="M0 0 C0.8125 1.6875 0.8125 1.6875 1 4 C-1.125 6.4375 -1.125 6.4375 -4 9 C-4.928125 9.928125 -5.85625 10.85625 -6.8125 11.8125 C-7.534375 12.534375 -8.25625 13.25625 -9 14 C-7.80363329 8.4532089 -6.39171168 5.84274772 -2 2 C-1.34 1.34 -0.68 0.68 0 0 Z " fill="#0A0697" transform="translate(44,73)"/>
<path d="M0 0 C4.10959039 0.45662115 6.31677104 0.80567981 9 4 C9.99 4.66 10.98 5.32 12 6 C10.56138706 5.91253716 9.12402492 5.80434652 7.6875 5.6875 C6.88699219 5.62949219 6.08648437 5.57148438 5.26171875 5.51171875 C2.60933741 4.91161175 1.63496121 4.14291033 0 2 C0 1.34 0 0.68 0 0 Z " fill="#92969A" transform="translate(30,125)"/>
<path d="M0 0 C1.98 0 3.96 0 6 0 C6 2.31 6 4.62 6 7 C5.67 5.68 5.34 4.36 5 3 C3.68 3.33 2.36 3.66 1 4 C1 4.66 1 5.32 1 6 C1.99 6.66 2.98 7.32 4 8 C2.35 7.67 0.7 7.34 -1 7 C-0.67 4.69 -0.34 2.38 0 0 Z " fill="#0604CC" transform="translate(174,81)"/>
<path d="M0 0 C1.98 0.66 3.96 1.32 6 2 C6 2.99 6 3.98 6 5 C3.36 5.66 0.72 6.32 -2 7 C-2 6.01 -2 5.02 -2 4 C-0.68 4 0.64 4 2 4 C2 3.34 2 2.68 2 2 C1.34 2 0.68 2 0 2 C0 1.34 0 0.68 0 0 Z " fill="#0606CE" transform="translate(2,82)"/>
<path d="M0 0 C0.99 0 1.98 0 3 0 C2.67 2.31 2.34 4.62 2 7 C0.35 7.33 -1.3 7.66 -3 8 C-3 6.68 -3 5.36 -3 4 C-1.35 4 0.3 4 2 4 C2 3.34 2 2.68 2 2 C1.34 2 0.68 2 0 2 C0 1.34 0 0.68 0 0 Z " fill="#ADADAD" transform="translate(78,166)"/>
<path d="M0 0 C0.33 0.66 0.66 1.32 1 2 C0.0625 4.125 0.0625 4.125 -1 6 C-0.34 6.33 0.32 6.66 1 7 C-0.32 9.31 -1.64 11.62 -3 14 C-3.144375 13.401875 -3.28875 12.80375 -3.4375 12.1875 C-3.8872439 10.43849596 -4.42892341 8.71322977 -5 7 C-4.00390625 5.17578125 -4.00390625 5.17578125 -2.5625 3.3125 C-2.08941406 2.68988281 -1.61632812 2.06726563 -1.12890625 1.42578125 C-0.75636719 0.95527344 -0.38382813 0.48476562 0 0 Z " fill="#06056A" transform="translate(29,91)"/>
<path d="M0 0 C2.64 0.33 5.28 0.66 8 1 C8 2.32 8 3.64 8 5 C5.69 5 3.38 5 1 5 C0.67 3.35 0.34 1.7 0 0 Z " fill="#0504CF" transform="translate(1,74)"/>
<path d="M0 0 C1.5 1.3125 1.5 1.3125 3 3 C3 3.99 3 4.98 3 6 C2.01 6.495 2.01 6.495 1 7 C0.67 7.99 0.34 8.98 0 10 C0.66 10.33 1.32 10.66 2 11 C0.68 10.67 -0.64 10.34 -2 10 C-2.33 8.35 -2.66 6.7 -3 5 C-2.01 5 -1.02 5 0 5 C-0.2784375 4.0409375 -0.2784375 4.0409375 -0.5625 3.0625 C-0.706875 2.381875 -0.85125 1.70125 -1 1 C-0.67 0.67 -0.34 0.34 0 0 Z " fill="#020259" transform="translate(161,40)"/>
<path d="M0 0 C1.2065625 0.0309375 1.2065625 0.0309375 2.4375 0.0625 C2.7675 1.3825 3.0975 2.7025 3.4375 4.0625 C3.1075 3.4025 2.7775 2.7425 2.4375 2.0625 C1.1175 2.0625 -0.2025 2.0625 -1.5625 2.0625 C-0.9025 4.0425 -0.2425 6.0225 0.4375 8.0625 C-0.8825 7.7325 -2.2025 7.4025 -3.5625 7.0625 C-3.60504356 5.06295254 -3.60330783 3.06208364 -3.5625 1.0625 C-2.5625 0.0625 -2.5625 0.0625 0 0 Z " fill="#0605C7" transform="translate(160.5625,36.9375)"/>
<path d="M0 0 C0.99 0 1.98 0 3 0 C1.33248852 3.94139078 -1.22710649 6.7892812 -4 10 C-4.66 8.68 -5.32 7.36 -6 6 C-4.68 5.67 -3.36 5.34 -2 5 C-2 4.01 -2 3.02 -2 2 C-1.34 2 -0.68 2 0 2 C0 1.34 0 0.68 0 0 Z " fill="#9998AF" transform="translate(163,142)"/>
<path d="M0 0 C3.63 0 7.26 0 11 0 C11.33 0.66 11.66 1.32 12 2 C8.37 2.33 4.74 2.66 1 3 C0.67 2.01 0.34 1.02 0 0 Z " fill="#CEEAFB" transform="translate(50,90)"/>
<path d="M0 0 C1.98 0 3.96 0 6 0 C6 0.66 6 1.32 6 2 C5.01 2 4.02 2 3 2 C3.33 2.99 3.66 3.98 4 5 C3.01 6.485 3.01 6.485 2 8 C1.34 8 0.68 8 0 8 C0 5.36 0 2.72 0 0 Z " fill="#0604D2" transform="translate(88,0)"/>
<path d="M0 0 C0 0.99 0 1.98 0 3 C-0.99 3 -1.98 3 -3 3 C-3 3.66 -3 4.32 -3 5 C-4.65 4.67 -6.3 4.34 -8 4 C-7 1 -7 1 -4.5625 -0.25 C-2 -1 -2 -1 0 0 Z " fill="#0604C2" transform="translate(180,102)"/>
<path d="M0 0 C1.65 1.65 3.3 3.3 5 5 C4.34 5.66 3.68 6.32 3 7 C3.66 8.65 4.32 10.3 5 12 C0.125 7.375 0.125 7.375 -1 4 C-0.34 4 0.32 4 1 4 C0.67 2.68 0.34 1.36 0 0 Z " fill="#060260" transform="translate(132,69)"/>
<path d="M0 0 C0.99 0.33 1.98 0.66 3 1 C2.01 1.33 1.02 1.66 0 2 C0.061875 3.1446875 0.061875 3.1446875 0.125 4.3125 C0 7 0 7 -2 10 C-0.68 9.67 0.64 9.34 2 9 C1.01 10.485 1.01 10.485 0 12 C-1.32 11.67 -2.64 11.34 -4 11 C-3.21681311 7.08406554 -1.60820142 3.63593365 0 0 Z " fill="#040362" transform="translate(149,21)"/>
<path d="M0 0 C0.33 0.66 0.66 1.32 1 2 C1.66 2 2.32 2 3 2 C3 1.34 3 0.68 3 0 C5.31 0 7.62 0 10 0 C10 0.33 10 0.66 10 1 C8.35 1 6.7 1 5 1 C5 1.66 5 2.32 5 3 C6.32 3.33 7.64 3.66 9 4 C6.69 4.66 4.38 5.32 2 6 C0 3 0 3 0 0 Z " fill="#02026A" transform="translate(170,77)"/>
<path d="M0 0 C1.66666667 0 3.33333333 0 5 0 C5.33 0.66 5.66 1.32 6 2 C8.01669827 3.13350534 8.01669827 3.13350534 10 4 C7.625 5.5625 7.625 5.5625 5 7 C4.34 6.67 3.68 6.34 3 6 C3.33 5.34 3.66 4.68 4 4 C3.01 4 2.02 4 1 4 C0.67 2.68 0.34 1.36 0 0 Z " fill="#060374" transform="translate(41,17)"/>
<path d="M0 0 C0 0.66 0 1.32 0 2 C-0.66 2 -1.32 2 -2 2 C-2 2.99 -2 3.98 -2 5 C-2.66 5 -3.32 5 -4 5 C-4 5.99 -4 6.98 -4 8 C-4.66 8 -5.32 8 -6 8 C-6.75 6.25 -6.75 6.25 -7 4 C-4.66754091 1.00112403 -3.88153854 0 0 0 Z " fill="#0604CF" transform="translate(158,30)"/>
<path d="M0 0 C1.32 0 2.64 0 4 0 C5.19287411 3.87684087 6 6.91621923 6 11 C4.68 10.67 3.36 10.34 2 10 C2.66 10 3.32 10 4 10 C4 9.34 4 8.68 4 8 C3.34 8 2.68 8 2 8 C2.33 5.69 2.66 3.38 3 1 C2.01 0.67 1.02 0.34 0 0 Z " fill="#050360" transform="translate(69,1)"/>
<path d="M0 0 C0 0.66 0 1.32 0 2 C-1.65 2 -3.3 2 -5 2 C-4.67 3.65 -4.34 5.3 -4 7 C-5.32 6.67 -6.64 6.34 -8 6 C-7.625 3.5625 -7.625 3.5625 -7 1 C-4.53721199 -0.231394 -2.7204945 -0.07159196 0 0 Z " fill="#0505C8" transform="translate(84,1)"/>
<path d="M0 0 C4.95 0.99 4.95 0.99 10 2 C10 3.32 10 4.64 10 6 C5.56909529 4.79157144 3.01887244 3.48331435 0 0 Z " fill="#9E9CB3" transform="translate(34,163)"/>
<path d="M0 0 C-0.3125 1.875 -0.3125 1.875 -1 4 C-4.18762365 6.12508244 -6.26512223 6.5020163 -10 7 C-3.24137931 0 -3.24137931 0 0 0 Z " fill="#AEAFBE" transform="translate(137,138)"/>
<path d="M0 0 C1.2065625 0.0309375 1.2065625 0.0309375 2.4375 0.0625 C1.4475 0.7225 0.4575 1.3825 -0.5625 2.0625 C-0.8925 3.0525 -1.2225 4.0425 -1.5625 5.0625 C-0.2425 5.0625 1.0775 5.0625 2.4375 5.0625 C2.4375 5.7225 2.4375 6.3825 2.4375 7.0625 C0.7875 7.0625 -0.8625 7.0625 -2.5625 7.0625 C-2.94383299 5.0710944 -3.27575582 3.06970923 -3.5625 1.0625 C-2.5625 0.0625 -2.5625 0.0625 0 0 Z " fill="#0604D6" transform="translate(173.5625,64.9375)"/>
<path d="M0 0 C1.89213369 2.38573379 3.02391783 4.07175348 4 7 C3.34 7.66 2.68 8.32 2 9 C0.02 8.34 -1.96 7.68 -4 7 C-2.68 6.67 -1.36 6.34 0 6 C-0.185625 5.38125 -0.37125 4.7625 -0.5625 4.125 C-1 2 -1 2 0 0 Z " fill="#040267" transform="translate(127,11)"/>
<path d="M0 0 C0.91007812 0.00902344 1.82015625 0.01804688 2.7578125 0.02734375 C3.45648438 0.03894531 4.15515625 0.05054688 4.875 0.0625 C4.545 2.3725 4.215 4.6825 3.875 7.0625 C3.565625 6.423125 3.25625 5.78375 2.9375 5.125 C2.0404837 3.12639179 2.0404837 3.12639179 0.875 2.0625 C-1.45797433 2.02157063 -3.79205225 2.02008277 -6.125 2.0625 C-6.455 2.7225 -6.785 3.3825 -7.125 4.0625 C-7.125 3.0725 -7.125 2.0825 -7.125 1.0625 C-4.60024538 -0.19987731 -2.81299534 -0.03606404 0 0 Z " fill="#02027D" transform="translate(83.125,-0.0625)"/>
<path d="M0 0 C0.33 0.66 0.66 1.32 1 2 C2.32 1.67 3.64 1.34 5 1 C5 1.66 5 2.32 5 3 C4.34 3 3.68 3 3 3 C3 4.32 3 5.64 3 7 C1.35 7.33 -0.3 7.66 -2 8 C-2 7.01 -2 6.02 -2 5 C-1.01 5 -0.02 5 1 5 C0.67 3.35 0.34 1.7 0 0 Z " fill="#959595" transform="translate(132,153)"/>
<path d="M0 0 C1.32 0 2.64 0 4 0 C4.33 1.98 4.66 3.96 5 6 C3.125 5.75 3.125 5.75 1 5 C-0.25 2.9375 -0.25 2.9375 -1 1 C-0.67 0.67 -0.34 0.34 0 0 Z " fill="#0402A4" transform="translate(175,84)"/>
<path d="M0 0 C0.33 0.66 0.66 1.32 1 2 C0.06421005 4.35981813 -0.93347808 6.69631264 -2 9 C-3.32 8.67 -4.64 8.34 -6 8 C-2.25 1.125 -2.25 1.125 0 0 Z " fill="#090690" transform="translate(59,52)"/>
<path d="M0 0 C1.32 0.66 2.64 1.32 4 2 C4 2.66 4 3.32 4 4 C3.01 4 2.02 4 1 4 C1 4.66 1 5.32 1 6 C-0.32 6.33 -1.64 6.66 -3 7 C-2.690625 6.401875 -2.38125 5.80375 -2.0625 5.1875 C-0.89790296 2.91043228 -0.89790296 2.91043228 0 0 Z " fill="#0705C8" transform="translate(150,24)"/>
<path d="M0 0 C0 1.65 0 3.3 0 5 C-2.97 4.505 -2.97 4.505 -6 4 C-6 2.68 -6 1.36 -6 0 C-2.25 -1.125 -2.25 -1.125 0 0 Z " fill="#04029E" transform="translate(8,93)"/>
<path d="M0 0 C0.99 0 1.98 0 3 0 C3 1.65 3 3.3 3 5 C3.99 5.33 4.98 5.66 6 6 C4.02 6.33 2.04 6.66 0 7 C-0.38133299 5.0085944 -0.71325582 3.00720923 -1 1 C-0.67 0.67 -0.34 0.34 0 0 Z " fill="#8FC9EA" transform="translate(92,81)"/>
<path d="M0 0 C0.33 0.99 0.66 1.98 1 3 C2.27875 2.79375 3.5575 2.5875 4.875 2.375 C7.0546875 2.0234375 7.0546875 2.0234375 9 2 C9.66 2.66 10.32 3.32 11 4 C9.02 4 7.04 4 5 4 C5 4.66 5 5.32 5 6 C2.525 5.01 2.525 5.01 0 4 C0 2.68 0 1.36 0 0 Z " fill="#02016F" transform="translate(166,60)"/>
<path d="M0 0 C0.66 0 1.32 0 2 0 C2 1.65 2 3.3 2 5 C2.66 5.33 3.32 5.66 4 6 C3 7 3 7 0.4375 7.0625 C-0.7690625 7.0315625 -0.7690625 7.0315625 -2 7 C-1.34 4.69 -0.68 2.38 0 0 Z " fill="#0502DF" transform="translate(170,55)"/>
<path d="M0 0 C1.32 0.33 2.64 0.66 4 1 C4 3 4 3 2.125 5.125 C0 7 0 7 -2 7 C-2 5.68 -2 4.36 -2 3 C-1.34 3 -0.68 3 0 3 C0 2.01 0 1.02 0 0 Z " fill="#0504C8" transform="translate(133,12)"/>
<path d="M0 0 C2.125 0.9375 2.125 0.9375 4 2 C1.69 3.32 -0.62 4.64 -3 6 C-2.625 3.5625 -2.625 3.5625 -2 1 C-1.34 0.67 -0.68 0.34 0 0 Z " fill="#BCBBCB" transform="translate(138,163)"/>
<path d="M0 0 C0.33 0.99 0.66 1.98 1 3 C1.66 3 2.32 3 3 3 C3.33 2.34 3.66 1.68 4 1 C4 1.99 4 2.98 4 4 C4.66 4.33 5.32 4.66 6 5 C5.01 5.99 4.02 6.98 3 8 C2.01 7.34 1.02 6.68 0 6 C-0.1875 2.875 -0.1875 2.875 0 0 Z " fill="#154271" transform="translate(90,68)"/>
<path d="M0 0 C1.11375 0.3403125 1.11375 0.3403125 2.25 0.6875 C2.58 2.0075 2.91 3.3275 3.25 4.6875 C2.59 4.6875 1.93 4.6875 1.25 4.6875 C0.92 4.0275 0.59 3.3675 0.25 2.6875 C-2.06 2.6875 -4.37 2.6875 -6.75 2.6875 C-4.29511132 0.41445492 -3.41240272 -0.38777304 0 0 Z " fill="#154977" transform="translate(82.75,45.3125)"/>
<path d="M0 0 C0.99 0 1.98 0 3 0 C3 1.65 3 3.3 3 5 C1.35 5.33 -0.3 5.66 -2 6 C-1.49396008 3.83125748 -1.00016187 2.00032373 0 0 Z " fill="#0805BD" transform="translate(17,36)"/>
<path d="M0 0 C0.66 0 1.32 0 2 0 C1.67 2.97 1.34 5.94 1 9 C0.01 8.67 -0.98 8.34 -2 8 C-1.125 2.25 -1.125 2.25 0 0 Z " fill="#0805C3" transform="translate(126,8)"/>
<path d="M0 0 C0.33 0.66 0.66 1.32 1 2 C1.99 2.33 2.98 2.66 4 3 C3.67 3.66 3.34 4.32 3 5 C3.66 5 4.32 5 5 5 C5 5.66 5 6.32 5 7 C3.35 6.67 1.7 6.34 0 6 C0 4.02 0 2.04 0 0 Z " fill="#0603D2" transform="translate(68,4)"/>
<path d="M0 0 C2.4375 0.75 2.4375 0.75 5 2 C5.8125 4.125 5.8125 4.125 6 6 C4.35 5.67 2.7 5.34 1 5 C0.67 3.35 0.34 1.7 0 0 Z " fill="#B2B1B1" transform="translate(46,155)"/>
<path d="M0 0 C1.65 0 3.3 0 5 0 C5 0.66 5 1.32 5 2 C0.61538462 5 0.61538462 5 -2 5 C-1.34 3.35 -0.68 1.7 0 0 Z " fill="#0704CB" transform="translate(166,49)"/>
<path d="M0 0 C2.125 0.375 2.125 0.375 4 1 C3.01 1.66 2.02 2.32 1 3 C0.26393501 6.56769552 0.26393501 6.56769552 0 10 C-0.33 10 -0.66 10 -1 10 C-1.9765625 3.9453125 -1.9765625 3.9453125 -2 2 C-1.34 1.34 -0.68 0.68 0 0 Z " fill="#112F58" transform="translate(88,41)"/>
<path d="M0 0 C0.99 0.33 1.98 0.66 3 1 C3.73046875 2.84765625 3.73046875 2.84765625 4.1875 5.0625 C4.34605469 5.79597656 4.50460938 6.52945313 4.66796875 7.28515625 C4.83232422 8.13400391 4.83232422 8.13400391 5 9 C3.68 8.67 2.36 8.34 1 8 C1.33 6.02 1.66 4.04 2 2 C1.01 1.67 0.02 1.34 -1 1 C-0.67 0.67 -0.34 0.34 0 0 Z " fill="#060491" transform="translate(18,34)"/>
<path d="M0 0 C0.66 0 1.32 0 2 0 C2.433125 0.9590625 2.433125 0.9590625 2.875 1.9375 C3.82823451 4.15206079 3.82823451 4.15206079 6 5 C6 5.66 6 6.32 6 7 C4.68 6.67 3.36 6.34 2 6 C2 5.34 2 4.68 2 4 C1.01 3.67 0.02 3.34 -1 3 C-0.67 2.01 -0.34 1.02 0 0 Z " fill="#0906CC" transform="translate(44,13)"/>
<path d="M0 0 C3.465 1.98 3.465 1.98 7 4 C7 4.99 7 5.98 7 7 C4.525 6.01 4.525 6.01 2 5 C2 4.01 2 3.02 2 2 C1.34 2 0.68 2 0 2 C0 1.34 0 0.68 0 0 Z " fill="#ACABBB" transform="translate(41,138)"/>
<path d="M0 0 C2.31 0 4.62 0 7 0 C5.515 1.98 5.515 1.98 4 4 C2.68 3.34 1.36 2.68 0 2 C0 1.34 0 0.68 0 0 Z " fill="#7B7E83" transform="translate(136,131)"/>
<path d="M0 0 C0 3 0 3 -1.5 4.6875 C-1.995 5.120625 -2.49 5.55375 -3 6 C-3 5.34 -3 4.68 -3 4 C-4.65 4.66 -6.3 5.32 -8 6 C-5.68055212 2.52082818 -3.73630036 1.70570234 0 0 Z " fill="#797C8F" transform="translate(151,121)"/>
<path d="M0 0 C0.99 0.33 1.98 0.66 3 1 C3 1.66 3 2.32 3 3 C3.99 3 4.98 3 6 3 C5.67 3.99 5.34 4.98 5 6 C4.01 6 3.02 6 2 6 C0 3 0 3 0 0 Z " fill="#0704C2" transform="translate(39,18)"/>
<path d="M0 0 C0.66 0 1.32 0 2 0 C2.185625 1.2065625 2.185625 1.2065625 2.375 2.4375 C2.58125 3.283125 2.7875 4.12875 3 5 C3.66 5.33 4.32 5.66 5 6 C3.68 6 2.36 6 1 6 C0 5 0 5 -0.0625 2.4375 C-0.041875 1.633125 -0.02125 0.82875 0 0 Z " fill="#0603D3" transform="translate(51,10)"/>
<path d="M0 0 C0.78375 0.04125 1.5675 0.0825 2.375 0.125 C0.725 1.775 -0.925 3.425 -2.625 5.125 C-3.285 4.135 -3.945 3.145 -4.625 2.125 C-2.625 0.125 -2.625 0.125 0 0 Z " fill="#9C9AAC" transform="translate(154.625,152.875)"/>
<path d="M0 0 C1.32 0.99 2.64 1.98 4 3 C3.34 4.65 2.68 6.3 2 8 C0.23537317 4.91190305 0 3.76687864 0 0 Z " fill="#9393B4" transform="translate(165,134)"/>
<path d="M0 0 C-0.6875 1.9375 -0.6875 1.9375 -2 4 C-4.625 4.75 -4.625 4.75 -7 5 C-6 2 -6 2 -4.0625 0.8125 C-2 0 -2 0 0 0 Z " fill="#0605CA" transform="translate(168,44)"/>
<path d="M0 0 C1.32 0 2.64 0 4 0 C4.33 1.32 4.66 2.64 5 4 C3.824375 4.2165625 3.824375 4.2165625 2.625 4.4375 C0.03578982 4.87798925 0.03578982 4.87798925 -2 6 C-1.34 4.02 -0.68 2.04 0 0 Z " fill="#030259" transform="translate(87,9)"/>
<path d="M0 0 C1.32 0.33 2.64 0.66 4 1 C4 1.66 4 2.32 4 3 C4.66 3 5.32 3 6 3 C6 3.99 6 4.98 6 6 C3.37812506 4.95125002 2.20628639 4.35068687 0.75 1.875 C0.5025 1.25625 0.255 0.6375 0 0 Z " fill="#6F6C8B" transform="translate(34,131)"/>
<path d="M0 0 C2 3.75 2 3.75 2 6 C2.99 6.33 3.98 6.66 5 7 C3.35 7.33 1.7 7.66 0 8 C0 5.36 0 2.72 0 0 Z " fill="#A3D4ED" transform="translate(64,103)"/>
<path d="M0 0 C2.0625 0.4375 2.0625 0.4375 4 1 C3.01 1.495 3.01 1.495 2 2 C2.66 3.65 3.32 5.3 4 7 C2.0625 6.25 2.0625 6.25 0 5 C-0.8125 2.9375 -0.8125 2.9375 -1 1 C-0.67 0.67 -0.34 0.34 0 0 Z " fill="#020256" transform="translate(171,102)"/>
<path d="M0 0 C3.96 0.33 7.92 0.66 12 1 C12 1.33 12 1.66 12 2 C10.95199219 2.09087891 10.95199219 2.09087891 9.8828125 2.18359375 C8.97273438 2.26738281 8.06265625 2.35117188 7.125 2.4375 C6.22007813 2.51871094 5.31515625 2.59992188 4.3828125 2.68359375 C1.98889139 2.86989285 1.98889139 2.86989285 0 4 C0 2.68 0 1.36 0 0 Z " fill="#566E91" transform="translate(112,100)"/>
<path d="M0 0 C0.94875 0.04125 1.8975 0.0825 2.875 0.125 C2.545 1.445 2.215 2.765 1.875 4.125 C1.545 3.465 1.215 2.805 0.875 2.125 C-1.105 2.125 -3.085 2.125 -5.125 2.125 C-3.125 0.125 -3.125 0.125 0 0 Z " fill="#24589E" transform="translate(84.125,58.875)"/>
<path d="M0 0 C0.66 0.99 1.32 1.98 2 3 C0.04783565 4.95216435 -1.53199953 5.84826645 -4 7 C-2.92598892 4.08482708 -2.22189824 2.22189824 0 0 Z " fill="#08059D" transform="translate(65,44)"/>
<path d="M0 0 C0.33 0.99 0.66 1.98 1 3 C-0.4375 5.6875 -0.4375 5.6875 -2 8 C-2.5534764 5.92446352 -3 4.15634036 -3 2 C-2.01 2 -1.02 2 0 2 C0 1.34 0 0.68 0 0 Z " fill="#040166" transform="translate(94,0)"/>
</svg>
